<svg height="511pt" viewBox="0 0 511 511.99993" width="511pt" xmlns="http://www.w3.org/2000/svg"><path d="m197.925781 10.789062c-16.972656 9.53125-28.621093 24.398438-33.507812 40.300782 16.121093 4.109375 34.882812 1.902344 51.855469-7.625 14.433593-8.105469 25.019531-20.070313 30.867187-33.253906 1.640625-3.691407-.742187-7.9375-4.75-8.460938-14.300781-1.871094-30.027344.9375-44.464844 9.039062zm0 0" fill="#96d7a5"/><path d="m242.390625 1.75c-14.300781-1.871094-30.027344.9375-44.464844 9.039062-16.972656 9.53125-28.621093 24.398438-33.507812 40.300782l82.46875-46.28125c-.890625-1.59375-2.488281-2.792969-4.496094-3.058594zm0 0" fill="#78c3a5"/><path d="m147.378906 3.238281c-2.769531-3.609375-7.925781-4.3125-11.546875-1.550781-3.621093 2.761719-4.3125 7.933594-1.554687 11.550781.234375.300781 23.027344 30.671875 23.027344 74.761719v20.300781h16.480468v-20.300781c0-49.601562-25.328125-83.351562-26.40625-84.761719zm0 0" fill="#b67f5f"/><path d="m147.378906 3.238281c-2.769531-3.609375-7.925781-4.3125-11.546875-1.550781-3.621093 2.761719-4.3125 7.933594-1.554687 11.550781.105468.132813 4.515625 6.007813 9.449218 16.261719 1.363282 2.835938 4.257813 4.648438 7.40625 4.648438 6.089844 0 10.042969-6.421876 7.394532-11.910157-5.585938-11.585937-10.679688-18.382812-11.148438-19zm0 0" fill="#a06e50"/><path d="m255.902344 240.121094c0-86.453125-57.171875-156.539063-127.699219-156.539063s-127.703125 70.085938-127.703125 156.539063 57.175781 156.535156 127.703125 156.535156 127.699219-70.082031 127.699219-156.535156zm0 0" fill="#ffaa5f"/><path d="m313.574219 240.121094c0-86.453125-47.953125-156.539063-107.105469-156.539063s-107.101562 70.085938-107.101562 156.539063 47.949218 156.535156 107.101562 156.535156 107.105469-70.082031 107.105469-156.535156zm0 0" fill="#ffaa5f"/><path d="m239.425781 371.941406c-59.152343 0-107.105469-70.085937-107.105469-156.539062 0-51.136719 16.847657-96.4375 42.796876-125.003906-43.851563 19.59375-75.75 79.214843-75.75 149.722656 0 39.824218 10.195312 76.140625 26.964843 103.742187 5.832031 9.601563-4.652343 21.039063-14.636719 15.890625-45.964843-23.6875-78.238281-79.394531-78.238281-144.351562 0-48.066406 17.691407-91.039063 45.507813-119.757813-46.089844 23.625-78.464844 79.410157-78.464844 144.476563 0 86.453125 57.175781 156.535156 127.699219 156.535156 14.949219 0 29.269531-3.066406 42.574219-8.898438 11.191406 5.792969 23.148437 8.898438 35.695312 8.898438 24.164062 0 46.382812-11.835938 64.304688-31.566406-9.917969 4.433594-20.4375 6.851562-31.347657 6.851562zm0 0" fill="#ff8c5a"/><path d="m384.425781 121.828125c-3.636719-2.730469-8.792969-1.988281-11.53125 1.644531-1.078125 1.4375-26.363281 35.730469-26.363281 86.136719v10.597656h16.476562v-10.597656c0-44.703125 22.851563-75.949219 23.066407-76.25 2.734375-3.636719 1.996093-8.804687-1.648438-11.53125zm0 0" fill="#b67f5f"/><path d="m372.894531 123.472656c-.449219.597656-5.089843 6.910156-10.355469 17.699219-2.683593 5.496094 1.300782 11.960937 7.417969 11.960937 3.140625 0 6.039063-1.796874 7.410157-4.621093 4.632812-9.535157 8.617187-15.027344 8.707031-15.152344 2.738281-3.640625 1.996093-8.804687-1.648438-11.53125-3.636719-2.730469-8.792969-1.988281-11.53125 1.644531zm0 0" fill="#a06e50"/><path d="m360.550781 206.609375c-3.6875 1.628906-7.875 1.628906-11.5625 0-11.164062-4.925781-23.039062-7.683594-35.414062-7.683594-63.703125 0-115.34375 70.085938-115.34375 156.539063 0 86.449218 51.640625 156.535156 115.34375 156.535156 14.535156 0 28.386719-3.804688 41.195312-10.460938 12.808594 6.65625 26.660157 10.460938 41.195313 10.460938 63.699218 0 115.339844-70.085938 115.339844-156.535156 0-86.453125-51.640626-156.539063-115.339844-156.539063-12.375 0-24.253906 2.757813-35.414063 7.683594zm0 0" fill="#ffaa5f"/><path d="m395.964844 215.402344c-8.515625 0-17.019532 1.664062-25.390625 4.917968-4.542969 1.769532-7.566407 6.15625-7.566407 11.03125v.527344c0 4.550782-3.6875 8.238282-8.238281 8.238282s-8.238281-3.6875-8.238281-8.238282v-.527344c0-4.875-3.023438-9.261718-7.566406-11.03125-8.371094-3.253906-16.878906-4.917968-25.390625-4.917968-54.515625 0-98.867188 62.832031-98.867188 140.0625 0 77.226562 44.351563 140.058594 98.867188 140.058594 9.46875 0 18.929687-2.054688 28.199219-6.074219 2.9375-1.273438 4.757812-4.289063 4.757812-7.492188v-2.910156c0-4.527344 3.652344-8.207031 8.175781-8.238281 4.574219-.035156 8.300781 3.664062 8.300781 8.238281v2.910156c0 3.203125 1.816407 6.21875 4.757813 7.492188 9.269531 4.019531 18.730469 6.074219 28.199219 6.074219 54.511718 0 98.863281-62.832032 98.863281-140.058594 0-77.230469-44.351563-140.0625-98.863281-140.0625zm0 0" fill="#ffc369"/><path d="m379.070312 285.441406c-1.574218-1.941406-3.078124-3.792968-4.46875-5.566406-4.796874-6.128906-12.027343-9.644531-19.832031-9.644531-7.804687 0-15.035156 3.515625-19.835937 9.644531-1.386719 1.773438-2.890625 3.625-4.464844 5.5625-13.289062 16.371094-33.371094 41.109375-33.371094 76.820312 0 35.710938 20.082032 60.449219 33.371094 76.816407 1.574219 1.941406 3.078125 3.792969 4.464844 5.566406 4.800781 6.128906 12.03125 9.644531 19.835937 9.644531 7.804688 0 15.035157-3.515625 19.835938-9.644531 1.386719-1.773437 2.890625-3.625 4.464843-5.566406 13.289063-16.367188 33.371094-41.105469 33.371094-76.816407 0-35.710937-20.082031-60.449218-33.371094-76.816406zm0 0" fill="#ffaa5f"/><path d="m395.960938 362.257812c0 33.738282-21.753907 56.164063-34.332032 72.226563-3.472656 4.433594-10.25 4.433594-13.722656 0-12.578125-16.0625-34.332031-38.488281-34.332031-72.226563 0-33.738281 21.753906-56.160156 34.332031-72.222656 3.472656-4.433594 10.25-4.433594 13.722656 0 12.578125 16.0625 34.332032 38.484375 34.332032 72.222656zm0 0" fill="#cd916e"/><path d="m340.125 366.222656c-8.449219-27.351562-2.828125-51.429687 3.304688-70.59375-12.65625 15.589844-29.855469 36.628906-29.855469 66.628906 0 33.738282 21.753906 56.164063 34.332031 72.226563 3.472656 4.433594 10.25 4.433594 13.722656 0 4.039063-5.160156 9.023438-10.976563 13.929688-17.613281-13.910156-11.757813-28.222656-27.308594-35.433594-50.648438zm0 0" fill="#b67f5f"/></svg>