<svg id="Capa_1" enable-background="new 0 0 512 512" height="512" viewBox="0 0 512 512" width="512" xmlns="http://www.w3.org/2000/svg"><g><g><path d="m256 225.439-21.333 115.895 21.333 113.021 139.356.683c.196.001.391.001.586.001 30.893 0 59.944-11.989 81.859-33.796 22.053-21.946 34.199-51.166 34.199-82.279v-63.956c0-9.079-135.016-36.12-256-49.569z" fill="#dcd2cd"/><path d="m0 221.481v68.617c0 90.322 73.482 163.805 163.731 163.805l92.269.452v-228.916c-121.664-13.525-256-11.861-256-3.958z" fill="#efe2dd"/></g><g><g><path d="m396.775 168.56-76.775-.733c-12.48-32.174-35.362-58.288-64-75.01l-10.667 152.516 10.667 124.689 139.43.683c56.015.275 101.57-45.058 101.57-101.074 0-55.49-44.736-100.605-100.225-101.071z" fill="#fc3636"/><path d="m188.58 72.645c-8.214-.433-16.531-.684-24.776-.684-82.182 0-148.804 66.622-148.804 148.804 0 82.183 66.622 148.805 148.805 148.805l92.195.452v-277.205c-20.158-11.77-43.163-18.894-67.42-20.172z" fill="#fc5b3f"/></g><g><path d="m478.347 187.899c-21.697-21.881-50.615-34.075-81.429-34.339l-66.958-.639c-15.56-33.682-41.887-60.594-73.96-77.158l-10.667 9.571 10.667 25.233c22.224 15.047 39.929 36.684 50.015 62.685l3.677 9.478 86.94.83h.017c22.854.192 44.303 9.235 60.396 25.464 16.092 16.228 24.955 37.752 24.955 60.607 0 23.071-9.006 44.74-25.36 61.014s-38.087 25.203-61.136 25.06l-139.504-.683-10.667 18.311 10.667 11.689 139.356.683c.196.001.391.001.586.001 30.893 0 59.943-11.989 81.858-33.796 22.054-21.946 34.2-51.166 34.2-82.279 0-30.821-11.952-59.847-33.653-81.732z" fill="#efe2dd"/><path d="m163.805 354.57c-73.781 0-133.805-60.025-133.805-133.805s60.024-133.804 133.805-133.804c7.569 0 15.639.223 23.986.663 24.879 1.312 48.348 9.496 68.209 22.943v-34.804c-20.325-10.496-42.951-16.849-66.629-18.097-8.871-.468-17.473-.705-25.566-.705-90.323 0-163.805 73.482-163.805 163.804s73.482 163.805 163.731 163.805l92.269.452v-30z" fill="#faeee5"/></g></g><ellipse cx="165.374" cy="221.351" fill="#fffbf5" rx="41.667" ry="41.667" transform="matrix(.707 -.707 .707 .707 -108.082 181.769)"/></g></svg>