<svg id="flat" height="512" viewBox="0 0 512 512" width="512" xmlns="http://www.w3.org/2000/svg"><path d="m166.448 172.275h176.49v153.546h-176.49z" fill="#93ad10"/><path d="m280 112v96h-40a88.0013 88.0013 0 0 1 -88-88v-96h40a88.00126 88.00126 0 0 1 88 88z" fill="#a2ba18"/><path d="m216 200v16h-96a95.99916 95.99916 0 0 1 -96-96v-16h96a95.99912 95.99912 0 0 1 96 96z" fill="#b9cd2a"/><path d="m216 205.37v10.63h-12.1499l-35.0901-30.7a69.85064 69.85064 0 0 0 -46.03-17.3 86.3 86.3 0 0 1 -52.74-18.1l-45.99-35.77v-10.13h13.03l42.78 33.27a70.22043 70.22043 0 0 0 42.92 14.73 85.93162 85.93162 0 0 1 56.57007 21.25z" fill="#acc221"/><path d="m280 195.95v12.05h-10.7l-44.02-49.52a68.35338 68.35338 0 0 1 -17.28-45.45 52.08633 52.08633 0 0 0 -15.3501-37.07l-40.6499-40.64v-11.32h11.32007l40.63993 40.65a67.9717 67.9717 0 0 1 20.04 48.38 52.33693 52.33693 0 0 0 13.24 34.82z" fill="#93ad10"/><circle cx="152" cy="304" fill="#545e94" r="104"/><circle cx="352" cy="208" fill="#5d68a3" r="120"/><circle cx="360" cy="368" fill="#6c78b8" r="120"/><path d="m333.83558 162.88589-9.21076 12.281a8.43038 8.43038 0 0 0 8.13025 13.37391l24.18321-4.03053a8.43035 8.43035 0 0 1 5.72334 1.08668l15.87944 9.52766a8.43038 8.43038 0 0 0 12.16481-10.36l-5.15287-12.88201a8.4304 8.4304 0 0 1 .59842-7.46837l8.97317-14.95529a8.43038 8.43038 0 0 0 -10.36-12.16481l-12.20341 4.88136a8.43035 8.43035 0 0 1 -8.39738-1.24439l-18.95973-15.16778a8.43038 8.43038 0 0 0 -13.5821 7.969l3.7849 22.70943a8.43034 8.43034 0 0 1 -1.57129 6.44414z" fill="#49538c"/><path d="m148.14206 239.71588-10.99028 21.98056a6.2177 6.2177 0 0 1 -3.59508 3.118l-9.49611 3.16537a6.21771 6.21771 0 0 0 -1.48275 11.07209l10.65341 7.10228a6.21771 6.21771 0 0 1 2.76875 5.17344v16.23695a6.21771 6.21771 0 0 0 9.94834 4.97417l18.97745-14.23308a6.21772 6.21772 0 0 1 6.51128-.58713l16.47145 8.23573a6.21772 6.21772 0 0 0 8.81272-7.06931l-4.05414-16.21654a6.21774 6.21774 0 0 1 .85862-4.957l8.02983-12.04474a6.21772 6.21772 0 0 0 -5.17346-9.66667h-17.80663a6.21772 6.21772 0 0 1 -4.39659-1.82113l-16.07893-16.07893a6.21771 6.21771 0 0 0 -9.95788 1.61594z" fill="#3f498a"/><path d="m361.88622 344h19.13278a5.962 5.962 0 0 0 4.76966-2.38483l16.42328-21.8977a5.96207 5.96207 0 0 1 10.1023.91092l10.45947 20.91894a5.962 5.962 0 0 0 3.88662 3.11774l19.124 4.781a5.96207 5.96207 0 0 1 2.76981 9.99988l-14.80781 14.80781a5.96208 5.96208 0 0 0 -1.74633 4.21581v23.13671a5.96207 5.96207 0 0 1 -10.17789 4.21583l-18.5305-18.5305a5.96207 5.96207 0 0 0 -7.28328-.89661l-20.83233 12.49938a5.96207 5.96207 0 0 1 -8.60311-7.32669l7.73011-19.32529a5.96208 5.96208 0 0 0 -1.9584-6.98392l-14.0356-10.52675a5.96207 5.96207 0 0 1 3.57722-10.73173z" fill="#545e94"/></svg>