<?xml version="1.0" encoding="iso-8859-1"?>
<!-- Generator: Adobe Illustrator 19.0.0, SVG Export Plug-In . SVG Version: 6.00 Build 0)  -->
<svg version="1.1" id="Capa_1" xmlns="http://www.w3.org/2000/svg" xmlns:xlink="http://www.w3.org/1999/xlink" x="0px" y="0px"
	 viewBox="0 0 512 512" style="enable-background:new 0 0 512 512;" xml:space="preserve">
<path style="fill:#EE8700;" d="M0.041,177.152c0-48.157,78.077-87.196,174.392-87.196s174.392,39.039,174.392,87.196
	c0,19.405-12.685,37.326-34.127,51.812c-4.676,3.16-7.445,8.468-7.445,14.112v136.185c0,37.175-30.415,67.59-67.59,67.59H109.201
	c-37.175,0-67.59-30.415-67.59-67.59V243.076c0-5.644-2.768-10.952-7.445-14.111C12.726,214.479,0.041,196.558,0.041,177.152z"/>
<path style="fill:#FF9811;" d="M512,151.919c0,19.403-12.678,37.332-34.123,51.814c-4.673,3.157-7.448,8.469-7.448,14.111v164.913
	c0,17.784-13.049,32.875-30.647,35.423l-188.164,27.594c-0.01,0.01-0.021,0.01-0.031,0.01l-0.361,0.052
	c-1.413,0.248-2.837,0.444-4.271,0.609c-0.485,0.052-0.959,0.093-1.444,0.144c-0.402,0.031-0.805,0.062-1.207,0.093
	c-0.392,0.031-0.784,0.052-1.176,0.072c-0.402,0.021-0.794,0.041-1.197,0.052c-0.268,0.01-0.526,0.021-0.794,0.021
	c-0.485,0.01-0.98,0.021-1.475,0.021H109.203c-37.177,0-67.587-30.41-67.587-67.587V243.076c0-5.643-2.775-10.955-7.448-14.112
	c-42.787-28.896-43.645-65.971-12.296-94.077c50.905-45.941,142.39-44.5,144.117-44.831l-0.01-0.052l154.04-22.694
	c14.307-2.104,28.811-2.713,43.232-1.65C447.405,71.861,512,108.119,512,151.919z"/>
<path style="fill:#FFB655;" d="M333.347,177.15c0,16.979-14.844,30.575-27.305,38.992c-8.933,6.035-14.256,16.102-14.256,26.934
	V379.26c0,28.739-23.385,52.114-52.124,52.114H109.203c-28.739,0-52.114-23.375-52.114-52.114V243.076
	c0-10.831-5.333-20.899-14.256-26.934c-12.461-8.417-27.315-22.013-27.315-38.992c0-16.876,15.494-34.299,42.52-47.812
	c30.833-15.422,72.167-23.911,116.399-23.911c7.045,0,14.019,0.217,20.889,0.65c36.238,2.228,69.578,10.295,95.5,23.261
	C317.853,142.851,333.347,160.274,333.347,177.15z"/>
<path style="fill:#FFC477;" d="M333.347,177.15c0,16.979-14.844,30.575-27.305,38.992c-8.933,6.035-14.256,16.102-14.256,26.934
	V379.26c0,28.739-23.385,52.114-52.124,52.114H150.98c-28.739,0-52.124-23.375-52.124-52.114V243.076
	c0-10.831-5.323-20.899-14.246-26.934c-12.471-8.417-27.326-22.013-27.326-38.992c0-16.876,15.504-34.299,42.531-47.812
	c25.923-12.966,59.272-21.033,95.511-23.261c36.238,2.228,69.578,10.295,95.5,23.261
	C317.853,142.851,333.347,160.274,333.347,177.15z"/>
<path style="fill:#CC7400;" d="M512,151.919c0,19.403-12.678,37.332-34.123,51.814c-4.673,3.157-7.448,8.469-7.448,14.111v164.913
	c0,17.784-13.049,32.875-30.647,35.423l-188.164,27.594c31.524-5.673,55.641-33.412,55.641-66.514V243.076
	c0-2.496,0.536-4.92,1.547-7.128c1.269-2.785,3.28-5.22,5.89-6.984c21.446-14.483,34.123-32.411,34.123-51.814
	c0-48.152-78.077-87.196-174.382-87.196c-2.837,0-5.653,0.031-8.448,0.103l-0.01-0.052l154.04-22.694
	c14.307-2.104,28.811-2.713,43.232-1.65C447.405,71.861,512,108.119,512,151.919z"/>
<path style="fill:#EE8700;" d="M477.876,203.733c-4.673,3.157-7.448,8.469-7.448,14.112v164.913
	c0,17.784-13.049,32.875-30.647,35.423l-188.164,27.594c31.524-5.673,55.641-33.412,55.641-66.514V243.076
	c0-2.496,0.536-4.92,1.547-7.128l0.485-0.062L477.876,203.733z"/>
<g>
</g>
<g>
</g>
<g>
</g>
<g>
</g>
<g>
</g>
<g>
</g>
<g>
</g>
<g>
</g>
<g>
</g>
<g>
</g>
<g>
</g>
<g>
</g>
<g>
</g>
<g>
</g>
<g>
</g>
</svg>
