<svg id="Capa_1" enable-background="new 0 0 512 512" height="512" viewBox="0 0 512 512" width="512" xmlns="http://www.w3.org/2000/svg"><g fill="#ffe09f"><path d="m66.065 169.29-8.065 16.516 1 74.194 247.222-8.129v-74.323c0-4.561-3.697-8.258-8.258-8.258z"/><path d="m334.367 172.065-23.333 8.325c-4.296 1.533-6.535 6.257-5.003 10.553l21.739 60.928 14.73 11.962 29.11-11.962-26.69-74.803c-1.533-4.295-6.258-6.535-10.553-5.003z"/><path d="m394.264 197.026c-6.694-6.196-17.143-5.793-23.34.901l-13.15 14.206c-2.032 2.195-1.9 5.623.296 7.655l34.661 32.084 22.602 10.128 38.181-10.13z"/></g><path d="m66.065 227.097v-57.807c-9.121 0-16.516 7.394-16.516 16.516v87.194h256.673v-21.129h-215.383c-13.683 0-24.774-11.092-24.774-24.774z" fill="#f6d190"/><path d="m338.546 282.073 42.251-4.452-9.188-25.75h-43.839z" fill="#f6d190"/><path d="m413.093 270.907 59.952-.785-19.53-18.251h-60.784z" fill="#f6d190"/><path d="m86.333 310.333 30.931 32.376h336.672c10.13 0 19.24-6.168 23.002-15.573l3.681-9.201-12.619-6.268z" fill="#f4dbb3"/><path d="m495.484 294h-421.161l-16.516-9.097c0-9.122 7.395-16.516 16.516-16.516h421.161c9.122 0 16.516 7.395 16.516 16.516 0 9.122-7.395 9.097-16.516 9.097z" fill="#f9eac7"/><path d="m74.323 268.387h-57.807c-9.121 0-16.516 7.394-16.516 16.516 0 9.121 7.395 16.516 16.516 16.516h478.968c9.121 0 16.516-7.395 16.516-16.516h-421.161c-9.122 0-16.516-7.394-16.516-16.516z" fill="#f4dbb3"/><path d="m124.897 317.935h355.722l6.606-16.516h-462.451l10.287 25.717c3.762 9.406 12.872 15.574 23.003 15.574h59.201l-3.395-8.486c-3.121-7.802 2.625-16.289 11.027-16.289z" fill="#eac89f"/></svg>