<?xml version="1.0" encoding="iso-8859-1"?>
<!-- Generator: Adobe Illustrator 19.0.0, SVG Export Plug-In . SVG Version: 6.00 Build 0)  -->
<svg version="1.1" id="Layer_1" xmlns="http://www.w3.org/2000/svg" xmlns:xlink="http://www.w3.org/1999/xlink" x="0px" y="0px"
	 viewBox="0 0 512.001 512.001" style="enable-background:new 0 0 512.001 512.001;" xml:space="preserve">
<path style="fill:#2FCC6E;" d="M481.734,21.648c0,0-13.755,95.884-86.2,123.792c-69.254,26.684-130.985-45.459-156.308-39.778
	c-1.141,0.234-2.2,0.646-3.191,1.237c-0.041,0.014-0.055,0.027-0.055,0.027l0.014-0.055c0.853-2.585,28.624-85.306,99.942-90.725
	C408.382,10.645,447.802,43.655,481.734,21.648z"/>
<g>
	<path style="fill:#23B75F;" d="M315.86,297.526c-0.96-1.635-95.845-164.883-70.745-286.423c1.032-4.995-2.18-9.879-7.175-10.911
		c-4.995-1.029-9.879,2.182-10.91,7.175c-6.158,29.821-6.216,63.511-0.241,100.747c-0.625,93.187-68.698,191.858-69.39,192.848
		c-2.919,4.181-1.897,9.936,2.283,12.855c1.61,1.125,3.455,1.665,5.279,1.665c2.914,0,5.783-1.376,7.578-3.947
		c2.417-3.46,49.081-71.028,66.362-149.68c4.113,14.415,8.98,29.255,14.623,44.522c21.265,57.537,45.402,98.788,46.418,100.517
		c1.721,2.924,4.802,4.55,7.966,4.55c1.592,0,3.205-0.411,4.675-1.277C316.978,307.581,318.446,301.921,315.86,297.526z"/>
	<path style="fill:#23B75F;" d="M423.073,64.153c-1.303-2.769-4.601-3.958-7.371-2.654c-12.722,5.987-22.153,4.717-37.778,2.615
		c-7.655-1.031-16.697-2.243-27.97-2.813l10.128-10.128c2.164-2.163,2.164-5.672,0-7.835c-2.162-2.163-5.672-2.163-7.834,0
		l-17.671,17.671c-44.845,1.312-99.41,39.712-101.748,41.374c-2.494,1.772-3.08,5.229-1.309,7.723
		c1.081,1.522,2.789,2.333,4.522,2.333c1.109,0,2.23-0.332,3.204-1.023c0.362-0.256,24.05-16.919,52.055-28.481l26.629,13.292
		c0.795,0.396,1.639,0.585,2.47,0.585c2.034,0,3.992-1.124,4.962-3.067c1.365-2.738,0.255-6.065-2.483-7.431l-17.298-8.634
		c10.602-3.396,21.356-5.627,31.33-5.627c14.646,0,26.01,1.264,35.338,2.485l22.965,19.575c1.043,0.889,2.321,1.324,3.591,1.324
		c1.566,0,3.122-0.661,4.219-1.947c1.985-2.329,1.706-5.826-0.623-7.811l-10.415-8.877c9.42,0.54,18.102-0.412,28.437-5.276
		C423.189,70.223,424.377,66.922,423.073,64.153z"/>
</g>
<path style="fill:#F94848;" d="M222.029,463.779c-28.087,37.302-72.954,56.174-115.567,44.18
	c-57.77-16.258-89.488-83.105-70.863-149.306c18.638-66.201,71.607-74.825,129.376-58.568c21.223,5.97,40.135,14.47,54.647,26.12"/>
<path style="fill:#E23D3D;" d="M149.107,507.959c-57.77-16.258-89.488-83.105-70.863-149.306
	c11.028-39.174,34.079-58.183,63.032-63.81c-48.112-7.509-89.625,6.799-105.675,63.81c-18.624,66.201,13.095,133.048,70.863,149.306
	c15.84,4.459,31.991,4.645,47.476,1.213C152.327,508.806,150.715,508.412,149.107,507.959z"/>
<path style="fill:#F94848;" d="M416.563,387.477c0-68.773-48.649-91.423-108.662-91.423s-108.662,22.65-108.662,91.423
	s48.649,124.525,108.662,124.525S416.563,456.249,416.563,387.477z"/>
<path style="fill:#E23D3D;" d="M242.005,387.477c0-60.384,37.508-85.204,87.279-90.363c-6.914-0.717-14.063-1.06-21.383-1.06
	c-60.012,0-108.662,22.65-108.662,91.423s48.649,124.525,108.662,124.525c7.319,0,14.469-0.835,21.383-2.417
	C279.513,498.201,242.005,447.861,242.005,387.477z"/>
<g>
</g>
<g>
</g>
<g>
</g>
<g>
</g>
<g>
</g>
<g>
</g>
<g>
</g>
<g>
</g>
<g>
</g>
<g>
</g>
<g>
</g>
<g>
</g>
<g>
</g>
<g>
</g>
<g>
</g>
</svg>
