<svg height="512" viewBox="0 0 128 128" width="512" xmlns="http://www.w3.org/2000/svg"><g><path d="m56.927 84.416a5.3 5.3 0 0 0 4.681-3.488 5.729 5.729 0 0 0 6.823-2.484c5.817 2.529 8.444-1 8.444-1 7.103 3.356 10.025-.764 10.025-.764 7.216 1.982 9.909-2.346 9.909-2.346a6.964 6.964 0 0 0 7.971-4.119c5.032-.041 6.487-5.339 6.487-5.339 5.574-1.874 5.271-6.432 5.271-6.432 4.595-2.826 3.124-6.953 3.124-6.953 4-4.6.86-7.853.86-7.853 2.972-5.091-1.731-8.308-1.731-8.308 1.113-5.479-3.916-7.855-3.916-7.855.288-5.485-6.4-7.955-6.4-7.955s-2.47-6.685-7.955-6.4c0 0-2.376-5.029-7.855-3.916 0 0-3.217-4.7-8.308-1.731 0 0-3.253-3.135-7.853.86 0 0-4.127-1.471-6.953 3.124 0 0-4.558-.3-6.432 5.271 0 0-5.3 1.455-5.339 6.487a6.964 6.964 0 0 0 -4.119 7.971s-4.323 2.696-2.341 9.914c0 0-4.121 2.924-.763 10.027 0 0-3.53 2.627-1 8.444a5.729 5.729 0 0 0 -2.484 6.823 5.3 5.3 0 0 0 -3.488 4.681s-.187 6.221 6.671 6.672c.45 6.853 6.671 6.669 6.671 6.669z" fill="#ef983b"/><path d="m50.255 77.745a6.748 6.748 0 0 1 -5.38-2.656l-14.396 14.392c-4.382 4.383-9.141 2.831-16.3 2.724s-10.574 7.795-5.336 13.03a10.528 10.528 0 0 0 11.119 2.8 10.528 10.528 0 0 0 2.8 11.119c5.238 5.246 13.138 1.831 13.038-5.331s-1.659-11.92 2.724-16.3l14.387-14.394a6.749 6.749 0 0 1 -2.656-5.384z" fill="#f2e7cb"/><g fill="#d87c30"><path d="m95.9 29a1.752 1.752 0 0 1 -1.632-1.117c-.837-2.154-3.725-2.2-3.77-2.2h-.018a1.75 1.75 0 0 1 -.013-3.5c.2 0 5.341.009 7.06 4.431a1.751 1.751 0 0 1 -1.627 2.386z"/><path d="m71 31.27a1.688 1.688 0 0 1 -.322-.031 1.749 1.749 0 0 1 -1.4-2.04c.678-3.644 4.062-5.074 5.955-5.344a1.75 1.75 0 0 1 .506 3.463c-.126.02-2.634.447-3.021 2.521a1.751 1.751 0 0 1 -1.718 1.431z"/><path d="m62.71 57.061a1.751 1.751 0 0 1 -1.75-1.75c0-6.071 3.723-8.407 3.882-8.5a1.75 1.75 0 0 1 1.842 2.977c-.131.087-2.224 1.552-2.224 5.527a1.751 1.751 0 0 1 -1.75 1.746z"/><path d="m83.841 51.31a1.75 1.75 0 0 1 -.106-3.5c2.67-.165 3.681-3 3.69-3.024a1.75 1.75 0 0 1 3.308 1.145c-.072.207-1.81 5.066-6.783 5.372-.037.006-.073.007-.109.007z"/></g></g></svg>