<?xml version="1.0" encoding="iso-8859-1"?>
<!-- Generator: Adobe Illustrator 19.0.0, SVG Export Plug-In . SVG Version: 6.00 Build 0)  -->
<svg version="1.1" id="Capa_1" xmlns="http://www.w3.org/2000/svg" xmlns:xlink="http://www.w3.org/1999/xlink" x="0px" y="0px"
	 viewBox="0 0 512 512" style="enable-background:new 0 0 512 512;" xml:space="preserve">
<g>
	<path style="fill:#1D1D1F;" d="M13.56,259.084L1.013,289.937c-3.629,8.923,2.937,18.681,12.569,18.681h79.242l12.037-57.991H26.129
		C20.61,250.626,15.64,253.971,13.56,259.084z"/>
	<path style="fill:#1D1D1F;" d="M510.986,289.937l-12.546-30.852c-2.08-5.114-7.049-8.457-12.57-8.457h-75.308l12.037,57.991h75.818
		C508.05,308.617,514.615,298.86,510.986,289.937z"/>
	<path style="fill:#1D1D1F;" d="M433.764,309.253l-12.441,67.787c-8.614,40.759-37.19,74.627-76.185,89.286
		c-16.547,6.221-35.859,11.265-57.461,13.184c0,0-3.652,0.186-9.47,0.351c-13.112,0.371-37.262,0.66-55.48-1.496
		c-20.539-2.424-39.005-7.345-54.964-13.184c-39.696-14.546-69.077-48.537-77.814-89.905l-12.07-66.023H433.764z"/>
</g>
<path style="fill:#2D2D30;" d="M433.764,309.253l-12.441,67.787c-8.614,40.759-37.19,74.627-76.185,89.286
	c-16.547,6.221-35.859,11.265-57.461,13.184c0,0-3.652,0.186-9.47,0.351c-7.386-0.248-14.804-0.712-21.437-1.496
	c-20.539-2.424-39.005-7.345-54.964-13.184c-39.696-14.546-69.077-48.537-77.814-89.905l-12.07-66.023H433.764z"/>
<ellipse style="fill:#3E3D42;" cx="254.447" cy="283.126" rx="202.98" ry="70.968"/>
<ellipse style="fill:#1D1D1F;" cx="254.447" cy="283.982" rx="167.461" ry="55.535"/>
<path style="fill:#FFB655;" d="M405.436,283.122c0,21.901-58.513,39.913-133.625,42.183c-5.251,0.155-10.584,0.237-15.99,0.237
	c-82.632,0-149.615-18.992-149.615-42.42c0-23.428,66.983-42.42,149.615-42.42c5.406,0,10.739,0.083,15.99,0.237
	C346.923,243.209,405.436,261.221,405.436,283.122z"/>
<path style="fill:#FFC477;" d="M405.436,283.122c0,21.901-58.513,39.913-133.625,42.183c-75.112-2.27-133.625-20.281-133.625-42.183
	c0-21.901,58.513-39.913,133.625-42.183C346.923,243.209,405.436,261.221,405.436,283.122z"/>
<g>
	<path style="fill:#D9CCBC;" d="M189.375,202.479c-4.274,0-7.737-3.463-7.737-7.737c0-12.266,4.853-18.786,8.751-24.024
		c3.304-4.44,5.691-7.646,5.691-14.786c0-7.141-2.387-10.348-5.691-14.788c-3.898-5.24-8.751-11.759-8.751-24.027
		c0-12.267,4.853-18.787,8.751-24.026c3.303-4.44,5.691-7.647,5.691-14.788c0-4.274,3.463-7.737,7.737-7.737
		s7.737,3.463,7.737,7.737c0,12.267-4.853,18.787-8.751,24.026c-3.303,4.44-5.691,7.647-5.691,14.788
		c0,7.142,2.387,10.349,5.691,14.789c3.898,5.24,8.751,11.759,8.751,24.026c0,12.266-4.853,18.786-8.751,24.024
		c-3.304,4.44-5.691,7.646-5.691,14.786C197.112,199.016,193.649,202.479,189.375,202.479z"/>
	<path style="fill:#D9CCBC;" d="M313.162,202.479c-4.274,0-7.737-3.463-7.737-7.737c0-12.266,4.853-18.786,8.751-24.024
		c3.304-4.44,5.691-7.646,5.691-14.786c0-7.141-2.387-10.348-5.691-14.788c-3.898-5.24-8.751-11.759-8.751-24.027
		c0-12.267,4.853-18.787,8.751-24.026c3.303-4.44,5.691-7.647,5.691-14.788c0-4.274,3.463-7.737,7.737-7.737
		s7.737,3.463,7.737,7.737c0,12.267-4.853,18.787-8.751,24.026c-3.303,4.44-5.691,7.647-5.691,14.788
		c0,7.142,2.387,10.349,5.691,14.789c3.898,5.24,8.751,11.759,8.751,24.026c0,12.266-4.853,18.786-8.751,24.024
		c-3.304,4.44-5.691,7.646-5.691,14.786C320.9,199.016,317.436,202.479,313.162,202.479z"/>
	<path style="fill:#D9CCBC;" d="M251.269,201.057c-4.274,0-7.737-3.463-7.737-7.737c0-14.839,4.366-22.583,8.219-29.415
		c3.478-6.168,6.224-11.038,6.224-21.814c0-10.778-2.746-15.652-6.224-21.819c-3.852-6.833-8.219-14.579-8.219-29.418
		s4.366-22.585,8.219-29.418c3.478-6.168,6.224-11.039,6.224-21.818c0-4.274,3.463-7.737,7.737-7.737
		c4.274,0,7.737,3.463,7.737,7.737c0,14.84-4.366,22.585-8.219,29.418c-3.478,6.168-6.224,11.039-6.224,21.818
		s2.746,15.651,6.224,21.818c3.852,6.833,8.219,14.579,8.219,29.419c0,14.838-4.366,22.582-8.219,29.414
		c-3.478,6.168-6.224,11.038-6.224,21.814C259.006,197.593,255.543,201.057,251.269,201.057z"/>
</g>
<path style="fill:#CD2A00;" d="M353.814,291.334c-8.459,2.734-17.661,5.086-27.482,7.015c-3.415,0.671-6.912,1.29-10.471,1.857
	c-4.859,0.774-9.336-2.981-9.212-7.902v-0.279c0.485-13.885,11.564-25.398,25.419-26.42c8.243-0.598,15.784,2.435,21.189,7.675
	c2.022,1.939,3.734,4.209,5.086,6.695C360.705,284.35,358.549,289.807,353.814,291.334z"/>
<path style="fill:#FF3501;" d="M353.814,291.334c-8.459,2.734-17.661,5.086-27.482,7.015c1.166-13.246,11.956-24.016,25.336-25.006
	c0.536-0.041,1.063-0.062,1.589-0.062c2.022,1.939,3.734,4.209,5.086,6.695C360.705,284.35,358.549,289.807,353.814,291.334z"/>
<path style="fill:#6DC82A;" d="M191.315,292.943c-0.031,0.361-0.083,0.722-0.134,1.073c-0.485,3.239-3.621,5.395-6.86,4.849
	c-11.998-2.032-23.222-4.673-33.445-7.83c-3.126-0.97-4.89-4.322-3.889-7.448c3.136-9.656,12.544-16.495,23.418-15.681
	c2.837,0.217,5.55,0.959,8.016,2.146c7.159,3.425,12.317,10.502,12.947,18.744C191.48,290.209,191.459,291.592,191.315,292.943z"/>
<path style="fill:#7ED63E;" d="M191.315,292.943c-5.829-1.351-11.399-2.847-16.712-4.488c-3.126-0.97-4.89-4.322-3.889-7.448
	c1.424-4.384,4.147-8.191,7.706-10.956c7.159,3.425,12.317,10.502,12.947,18.744C191.48,290.209,191.459,291.592,191.315,292.943z"
	/>
<path style="fill:#AA6100;" d="M273.988,295.14c-9.15,0.743-18.548,1.197-28.163,1.31c-1.785,0.031-3.58,0.041-5.385,0.041
	c-3.848,0-7.655-0.052-11.43-0.165c-0.794-0.021-1.537-0.351-2.094-0.908l-3.301-3.363c-0.103-0.103-0.196-0.206-0.279-0.32
	c-4.096-5.333-3.157-13.04,2.115-17.228l13.318-10.584c5.333-4.23,13.163-3.332,17.393,2.001l4.849,5.891l15.092,18.332
	C277.671,292.056,276.443,294.934,273.988,295.14z"/>
<path style="fill:#CC7400;" d="M273.988,295.14c-9.15,0.743-18.548,1.197-28.163,1.31c-2.569-5.117-1.29-11.544,3.353-15.237
	l11.833-9.398l15.092,18.332C277.671,292.056,276.443,294.934,273.988,295.14z"/>
<g>
</g>
<g>
</g>
<g>
</g>
<g>
</g>
<g>
</g>
<g>
</g>
<g>
</g>
<g>
</g>
<g>
</g>
<g>
</g>
<g>
</g>
<g>
</g>
<g>
</g>
<g>
</g>
<g>
</g>
</svg>
