<?xml version="1.0" encoding="iso-8859-1"?>
<!-- Generator: Adobe Illustrator 19.0.0, SVG Export Plug-In . SVG Version: 6.00 Build 0)  -->
<svg version="1.1" id="Capa_1" xmlns="http://www.w3.org/2000/svg" xmlns:xlink="http://www.w3.org/1999/xlink" x="0px" y="0px"
	 viewBox="0 0 512 512" style="enable-background:new 0 0 512 512;" xml:space="preserve">
<path style="fill:#8B2613;" d="M346,60l30,446.64c5.88,3.4,12.71,5.36,20,5.36c22.09,0,40-17.91,40-40V336l-30-30l30-30V60H346z"/>
<path style="fill:#C7461F;" d="M286,60l30,412c0,22.09,17.91,40,40,40c7.29,0,14.12-1.96,20-5.36V60H286z"/>
<path style="fill:#480306;" d="M436,60c0,22.09-17.91,40-40,40c-7.29,0-14.12-1.96-20-5.36L356,60l20-60C409.14,0,436,26.86,436,60z
	"/>
<g>
	<path style="fill:#8B2613;" d="M376,0v94.64c-5.88,3.4-12.71,5.36-20,5.36c-22.09,0-40-17.91-40-40C316,26.86,342.86,0,376,0z"/>
	<path style="fill:#8B2613;" d="M106,60l30,446.64c5.88,3.4,12.71,5.36,20,5.36c22.09,0,40-17.91,40-40l30-412H106z"/>
</g>
<path style="fill:#C7461F;" d="M76,60v216l30,30l-30,30v136c0,22.09,17.91,40,40,40c7.29,0,14.12-1.96,20-5.36V60H76z"/>
<path style="fill:#480306;" d="M196,60c0,22.09-17.91,40-40,40c-7.29,0-14.12-1.96-20-5.36L116,60l20-60C169.14,0,196,26.86,196,60z
	"/>
<g>
	<path style="fill:#8B2613;" d="M136,0v94.64c-5.88,3.4-12.71,5.36-20,5.36c-22.09,0-40-17.91-40-40C76,26.86,102.86,0,136,0z"/>
	<path style="fill:#8B2613;" d="M226,60l30,446.64c5.88,3.4,12.71,5.36,20,5.36c22.09,0,40-17.91,40-40V60H226z"/>
</g>
<path style="fill:#C7461F;" d="M196,60v412c0,22.09,17.91,40,40,40c7.29,0,14.12-1.96,20-5.36V60H196z"/>
<path style="fill:#480306;" d="M316,60c0,22.09-17.91,40-40,40c-7.29,0-14.12-1.96-20-5.36L236,60l20-60C289.14,0,316,26.86,316,60z
	"/>
<path style="fill:#8B2613;" d="M256,0v94.64c-5.88,3.4-12.71,5.36-20,5.36c-22.09,0-40-17.91-40-40C196,26.86,222.86,0,256,0z"/>
<polygon style="fill:#FCBA66;" points="436,306 436,336 257.488,336 227.488,291 "/>
<g>
	<polygon style="fill:#FEDD90;" points="257.488,286 257.488,336 76,336 76,306 	"/>
	<polygon style="fill:#FEDD90;" points="436,276 436,306 257.488,306 217.818,291 257.488,276 	"/>
</g>
<rect x="76" y="276" style="fill:#FFF2A3;" width="181.49" height="30"/>
<g>
</g>
<g>
</g>
<g>
</g>
<g>
</g>
<g>
</g>
<g>
</g>
<g>
</g>
<g>
</g>
<g>
</g>
<g>
</g>
<g>
</g>
<g>
</g>
<g>
</g>
<g>
</g>
<g>
</g>
</svg>
