<svg width="58" height="58" viewBox="0 0 58 58" fill="none" xmlns="http://www.w3.org/2000/svg">
    <path d="M16.9167 41.1148L27.5814 41.0785L50.8588 18.0235C51.7723 17.11 52.2749 15.8968 52.2749 14.6063C52.2749 13.3158 51.7723 12.1027 50.8588 11.1892L47.0259 7.35633C45.1989 5.52933 42.0113 5.539 40.1988 7.34908L16.9167 30.4089V41.1148V41.1148ZM43.6088 10.7735L47.4488 14.5991L43.5894 18.4222L39.7566 14.5918L43.6088 10.7735ZM21.75 32.4244L36.3225 17.9897L40.1553 21.8225L25.5853 36.2524L21.75 36.2645V32.4244Z" fill="#0275d8"/>
    <path d="M12.0833 50.75H45.9167C48.5823 50.75 50.75 48.5823 50.75 45.9167V24.969L45.9167 29.8023V45.9167H19.7152C19.6523 45.9167 19.5871 45.9408 19.5243 45.9408C19.4445 45.9408 19.3648 45.9191 19.2826 45.9167H12.0833V12.0833H28.6303L33.4636 7.25H12.0833C9.41775 7.25 7.25 9.41775 7.25 12.0833V45.9167C7.25 48.5823 9.41775 50.75 12.0833 50.75Z" fill="#0275d8"/>
</svg>