<svg height="512" viewBox="0 0 50 58" width="512" xmlns="http://www.w3.org/2000/svg"><g id="Page-1" fill="none" fill-rule="evenodd"><g id="001---Flour" fill-rule="nonzero" transform="translate(0 -1)"><path id="Shape" d="m48.49 1.74-2.98 1.79c-.3169325.1904131-.7130675.1904131-1.03 0l-3.97-2.39c-.3134634-.18997326-.7065366-.18997326-1.02 0l-3.98 2.39c-.3169325.1904131-.7130675.1904131-1.03 0l-3.98-2.39c-.3134634-.18997326-.7065366-.18997326-1.02 0l-3.98 2.39c-.3169325.1904131-.7130675.1904131-1.03 0l-3.96-2.39c-.3169325-.1904131-.7130675-.1904131-1.03 0l-3.97 2.39c-.3169325.1904131-.7130675.1904131-1.03 0l-3.97-2.39c-.1535175-.09354636-.3302382-.14205794-.51-.14-.18307951-.00340269-.36337617.04513872-.52.14l-3.48 2.1-.49.29c-.3169325.1904131-.7130675.1904131-1.03 0l-.48-.29-2.49-1.5c-.30906484-.18324549-.69268084-.18659574-1.00489899-.00877613s-.50503835.50947127-.50510101.86877613v55.4c0 .5522847.44771525 1 1 1h48c.5522847 0 1-.4477153 1-1v-55.4c-.0000627-.35930486-.1928829-.69095652-.505101-.86877613-.3122182-.17781961-.6958342-.17446936-1.004899.00877613z" fill="#f3d55b"/><path id="Shape" d="m10 .99983263v58.00016737l-4-5.6-1-1.4-1 1.4-3.75 5.26c-.16199433-.1815686-.25104888-.4166726-.25-.66v-55.4c.00006266-.35930486.19288286-.69095652.50510101-.86877613s.69583415-.17446936 1.00489899.00877613l2.49 1.5.48.29c.3169325.1904131.7130675.1904131 1.03 0l.49-.29 3.48-2.1c.15662383-.09486128.33692049-.14340269.52-.14016737z" fill="#f0c419"/><path id="Shape" d="m6 3.24v7.76c0 .5522847-.44771525 1-1 1s-1-.4477153-1-1v-7.76l.48.29c.3169325.1904131.7130675.1904131 1.03 0z" fill="#f29c1f"/><path id="Shape" d="m.25 58.66c.18819509.2176316.46228946.3418877.75.34h9" fill="#f0c419"/><path id="Shape" d="m45 16h-30c-.5522847 0-1-.4477153-1-1s.4477153-1 1-1h30c.5522847 0 1 .4477153 1 1s-.4477153 1-1 1z" fill="#f9eab0"/><path id="Shape" d="m45 43h-30c-.5522847 0-1-.4477153-1-1s.4477153-1 1-1h30c.5522847 0 1 .4477153 1 1s-.4477153 1-1 1z" fill="#f9eab0"/><g fill="#e57e25"><path id="Shape" d="m17 25c.5522847 0 1-.4477153 1-1s-.4477153-1-1-1h-3c-.5522847 0-1 .4477153-1 1v9c0 .5522847.4477153 1 1 1s1-.4477153 1-1v-4h2c.5522847 0 1-.4477153 1-1s-.4477153-1-1-1h-2v-2z"/><path id="Shape" d="m23 32h-2v-8c0-.5522847-.4477153-1-1-1s-1 .4477153-1 1v9c0 .5522847.4477153 1 1 1h3c.5522847 0 1-.4477153 1-1s-.4477153-1-1-1z"/><path id="Shape" d="m28 23c-1.6568542 0-3 1.3431458-3 3v5c0 1.6568542 1.3431458 3 3 3s3-1.3431458 3-3v-5c0-1.6568542-1.3431458-3-3-3zm1 8c0 .5522847-.4477153 1-1 1s-1-.4477153-1-1v-5c0-.5522847.4477153-1 1-1s1 .4477153 1 1z"/><path id="Shape" d="m38 23c-.5522847 0-1 .4477153-1 1v7c0 .5522847-.4477153 1-1 1s-1-.4477153-1-1v-7c0-.5522847-.4477153-1-1-1s-1 .4477153-1 1v7c0 1.6568542 1.3431458 3 3 3s3-1.3431458 3-3v-7c0-.5522847-.4477153-1-1-1z"/><path id="Shape" d="m45.348 29.46c1.3273719-.8228214 1.9470223-2.4269487 1.5174952-3.9284339-.429527-1.5014853-1.8037852-2.5352189-3.3654952-2.5315661h-1.5c-.5522847 0-1 .4477153-1 1v9c0 .5522847.4477153 1 1 1s1-.4477153 1-1v-3h.382l1.723 3.447c.2468713.4942948.8477051.6948712 1.342.448.4942948-.2468713.6948713-.8477052.448-1.342zm-2.348-4.46h.5c.8284271 0 1.5.6715729 1.5 1.5s-.6715729 1.5-1.5 1.5h-.5z"/></g><path id="Shape" d="m46 56h-5c-.5522847 0-1-.4477153-1-1s.4477153-1 1-1h4v-2c0-.5522847.4477153-1 1-1s1 .4477153 1 1v3c0 .5522847-.4477153 1-1 1z" fill="#b19046"/><path id="Shape" d="m6 53.4v-35.4c0-.5522847-.44771525-1-1-1s-1 .4477153-1 1v35.4l-3.75 5.26c.18819509.2176316.46228946.3418877.75.34l9 .0000212z" fill="#f29c1f"/></g></g></svg>