<svg id="Capa_1" enable-background="new 0 0 512 512" height="512" viewBox="0 0 512 512" width="512" xmlns="http://www.w3.org/2000/svg"><g><g><path d="m138.436 301.38c9.963 9.906 15.564 23.376 15.564 37.425 0 17.628 8.801 34.093 23.459 43.885l32.011 21.386c14.601 9.755 23.368 26.155 23.368 43.715v44.64c0 3.242 1.941 6.168 4.928 7.429 38.311 16.169 81.527 16.186 119.852.049l.122-.051c2.99-1.259 4.934-4.187 4.934-7.431v-28.483c0-12.865 4.852-25.256 13.588-34.7 9.266-10.018 7.803-25.858-3.142-34.008-10.322-7.687-12.312-22.355-4.411-32.513l53.171-68.362c11.55-14.85 10.235-35.976-3.068-49.278l-16.852-16.853c-14.711-14.711-38.612-14.545-53.118.369l-17.038 17.517c-5.803 5.966-15.918 1.846-15.9-6.477.057-27.093 11.328-52.953 31.134-71.439l.957-.893c9.742-9.093 9.519-24.252-.257-32.855l-.512-.451c-9.844-8.662-15.486-21.142-15.486-34.255v-75.738c.001-13.259-10.748-24.008-24.008-24.008h-47.542c-13.259 0-24.008 10.749-24.008 24.008v24.781c0 6.862-8.296 10.298-13.149 5.446l-1.759-1.759c-7.466-7.466-19.57-7.466-27.036 0l-9.838 9.838c-9.774 9.774-9.908 25.578-.301 35.516l40.473 41.869c9.591 9.922 14.953 23.183 14.953 36.983v59.867c0 4.712 1.036 9.367 3.035 13.634l15.666 33.442c1.999 4.267 3.035 8.922 3.035 13.634 0 17.75-14.389 32.139-32.139 32.139-15.748 0-28.515-12.767-28.515-28.515v-115.737c0-11.016-8.93-19.946-19.946-19.946h-26.782c-11.016 0-19.946 8.93-19.946 19.946v21.794c0 6.726-8.077 10.154-12.915 5.483-6.289-6.072-16.284-5.985-22.466.197l-10.431 10.431c-7.831 7.831-7.813 20.533.04 28.341z" fill="#d8aa8b"/></g><g><path d="m421.88 294.36c11.55-14.85 10.234-35.976-3.068-49.278l-16.852-16.852c-8.525-8.525-20.135-12.053-31.216-10.612l6.86 6.86c13.303 13.303 14.618 34.429 3.068 49.278l-53.171 68.362c-7.901 10.159-5.911 24.827 4.41 32.513 10.945 8.15 12.408 23.991 3.142 34.008-8.735 9.444-13.588 21.835-13.588 34.7v28.483c0 3.244-1.944 6.172-4.934 7.431l-.122.051c-26.593 11.197-55.542 14.616-83.572 10.258v2.868c0 3.242 1.941 6.168 4.928 7.429 38.311 16.169 81.527 16.186 119.852.049l.122-.051c2.99-1.259 4.934-4.187 4.934-7.431v-28.483c0-12.865 4.852-25.256 13.588-34.7 9.266-10.018 7.803-25.858-3.142-34.008-10.322-7.687-12.312-22.355-4.41-32.513z" fill="#c6865c"/></g><g><path d="m290.533 3.405v75.732c0 13.115 5.642 25.596 15.486 34.26l.512.451c9.776 8.603 10 23.762.257 32.855l-.957.893c-3.346 3.123-6.338 6.298-9.012 9.501-16.321 19.546 2.689 47.963 27.199 41.059.446-.126.901-.246 1.366-.361 5.238-11.027 12.543-21.092 21.654-29.595l.957-.893c9.742-9.093 9.519-24.252-.257-32.855l-.517-.455c-9.842-8.662-15.482-21.14-15.482-34.251v-75.738c.002-13.259-10.747-24.008-24.007-24.008h-17.439c.158 1.112.24 2.249.24 3.405z" fill="#c6865c"/></g><path d="m374.961 354.685-6.251 8.037c-1.585 2.037-2.771 4.256-3.573 6.564-65.26-5.755-131.088-3.497-195.798 6.72-4.093-4.119-7.457-8.866-9.981-14.031 71.181-11.925 143.773-14.382 215.603-7.29zm-53.683-276.503c3.485 0 6.976-.116 10.463-.349v-15.49c-33.899 2.508-68.099-7.251-95.559-27.374v13.82c0 1.571-.435 2.962-1.164 4.115 25.666 16.477 55.814 25.278 86.26 25.278zm51.842 317.054c-3.068-2.284-5.399-5.185-6.954-8.401-47.21 8.105-93.673 21.192-138.169 38.922 2.165 4.69 3.644 9.708 4.355 14.901 46.877-18.8 96.007-32.321 145.893-40.148-1.373-1.967-3.084-3.754-5.125-5.274zm-133.594-212.804v16.268c29.646-10.12 60.415-13.858 91.485-11.13 3.206-5.085 6.892-9.892 11.025-14.35-34.769-4.452-69.269-1.343-102.51 9.212zm-6.688 275.023v15.48c12.33.714 24.689 1.07 37.057 1.07 31.038 0 62.111-2.246 92.778-6.718v-3.344c0-4.252.53-8.452 1.556-12.511-43.366 6.598-87.59 8.625-131.391 6.023zm-8.265-317.756c3.068 3.174 5.702 6.689 7.867 10.454 32.415-16.858 67.318-27.232 103.72-30.819-2.245-4.724-3.677-9.83-4.198-15.102-38.369 4.123-75.127 15.418-109.226 33.566zm-79.938 169.094 55.983-7.197c-.006-.237-.009-.475-.009-.713v-14.865l-68.737 8.837 6.563 6.526c2.306 2.292 4.377 4.775 6.2 7.412zm111.99-28.59 1.603 3.421c1.751 3.738 2.763 7.773 2.988 11.885 47.508-1.319 95.711 7.644 139.589 25.948l9.816-12.62c-48.183-20.796-101.564-30.719-153.996-28.634zm170.684 4.512c-28.657-14.93-54.609-34.25-77.13-57.424-.454.423-.899.858-1.337 1.308l-9.475 9.742c23.34 23.956 50.173 43.984 79.773 59.541l2.739-3.521c2.333-2.999 4.14-6.252 5.43-9.646zm-115.567-53.722 4.686-1.267c.596-5.743 1.696-11.394 3.272-16.892l-11.99 3.241c-15.212 4.112-30.867 7.122-46.53 8.947l-21.654 2.521v9.006c0 2.18.222 4.348.659 6.47.078-.007.156-.015.235-.024l22.548-2.625c16.418-1.912 32.829-5.067 48.774-9.377zm-177.807-29.085.267.027c8.244.825 16.519 1.236 24.795 1.236 13.235 0 26.468-1.054 39.553-3.157l2.059-.331v-14.537c0-.372-.011-.742-.031-1.11l-4.481.72c-20.545 3.304-41.47 3.847-62.162 1.614zm-23.869 71.263c32.269-4.444 63.449-16.263 90.544-34.366v-18.594l-8.46 5.662c-28.528 19.092-61.946 30.676-96.191 33.27z" fill="#c6865c"/><path d="m410.62 308.837-9.816 12.62c-14.708-6.136-29.902-11.221-45.392-15.222l10.293-13.235c15.333 4.266 30.361 9.555 44.915 15.837zm-41.911 53.886 6.251-8.037c-17.217-1.7-34.479-2.851-51.754-3.455-1.163 5.247-.443 10.766 2.02 15.537 13.317.508 26.625 1.347 39.91 2.519.802-2.308 1.989-4.527 3.573-6.564zm-47.431-284.541c3.485 0 6.976-.116 10.463-.349v-15.49c-13.845 1.024-27.741.002-41.207-2.937v15.776c10.104 1.985 20.407 3 30.744 3zm-15.258 35.215.512.451c2.824 2.485 4.851 5.517 6.07 8.792 7.775-1.422 15.631-2.525 23.558-3.306-2.245-4.724-3.677-9.83-4.198-15.102-10.21 1.097-20.306 2.702-30.268 4.809 1.335 1.538 2.778 2.994 4.326 4.356zm-15.261 58.753c-.262 5.414 1.301 10.712 4.198 15.165 11.941-.889 23.975-.806 36.055.255 3.206-5.085 6.892-9.892 11.025-14.35-17.199-2.202-34.332-2.554-51.278-1.07zm89.914 101.607-.135.174c12.25 8.874 25.14 16.875 38.603 23.951l2.739-3.521c2.331-2.998 4.139-6.252 5.429-9.645-13.96-7.273-27.278-15.588-39.87-24.883-1.221 4.934-3.469 9.684-6.766 13.924zm-17.999 190.187c0-4.252.53-8.452 1.556-12.511-14.178 2.156-28.447 3.824-42.763 5.002v15.388c0 .038-.001.077-.001.115 13.79-1.107 27.539-2.657 41.208-4.65zm15.571-63.434c-1.373-1.967-3.085-3.754-5.125-5.274-3.068-2.284-5.399-5.185-6.954-8.401-8.376 1.438-16.729 3.034-25.051 4.783.377 6.018-1.596 12.196-6.061 17.023-.043.046-.085.093-.127.139 14.351-3.232 28.803-5.993 43.318-8.27z" fill="#b16e3d"/></g></svg>