<?xml version="1.0" encoding="iso-8859-1"?>
<!-- Generator: Adobe Illustrator 19.0.0, SVG Export Plug-In . SVG Version: 6.00 Build 0)  -->
<svg version="1.1" id="Capa_1" xmlns="http://www.w3.org/2000/svg" xmlns:xlink="http://www.w3.org/1999/xlink" x="0px" y="0px"
	 viewBox="0 0 512 512" style="enable-background:new 0 0 512 512;" xml:space="preserve">
<circle style="fill:#F7F0E6;" cx="256" cy="256" r="256"/>
<path style="fill:#EEE2D4;" d="M427.001,346.506c-2.72-9.8-6.506-19.956-11.416-30.141c-4.907-10.185-10.519-19.527-16.534-27.854
	c-1.192-1.649-2.701-2.934-4.337-4.023c2.913-5.288,3.373-11.714,0.897-17.418c-0.954-2.2-2.188-4.427-3.243-6.639
	c5.257-5.786,10.396-11.945,15.168-18.812c6.451-9.284,11.79-18.719,16.02-27.968c2.813-6.148,1.423-13.27-3.493-17.911
	c-7.396-6.98-15.889-13.717-25.356-19.896c-9.315-6.081-18.79-11.086-28.1-15.073c1.558-3.207,2.119-6.868,1.216-10.536
	c-2.433-9.875-5.921-20.138-10.53-30.462c-4.609-10.324-9.945-19.826-15.715-28.326c-3.836-5.651-10.772-8.422-17.447-6.968
	c-10.038,2.185-20.452,5.397-30.905,9.704c-9.939,4.095-19.038,8.883-27.279,14.051c-4.366-4.196-9.026-8.31-13.977-12.296
	c-9.956-8.013-20.222-14.826-30.408-20.406c-6.772-3.71-15.179-2.923-21.145,1.977c-8.974,7.371-17.799,15.968-26.098,25.688
	c-7.719,9.041-14.255,18.334-19.812,27.578c-1.306-0.147-2.671-0.43-3.966-0.551c-8.221-0.768-16.139,3.57-19.917,10.912
	c-1.873,3.639-3.543,7.582-5.26,11.458c-3.689-1.772-7.913-2.348-11.987-1.135c-9.846,2.931-19.991,6.912-30.092,11.989
	c-10.101,5.078-19.297,10.818-27.431,16.925c-5.407,4.06-7.586,10.98-5.482,17.406c3.166,9.665,7.412,19.639,12.78,29.589
	c3.407,6.316,7.149,12.135,11.012,17.706c-5.302,3.261-10.36,6.663-15.112,10.184c-6.473,4.798-9.399,13.109-7.36,20.904
	c3.066,11.724,7.361,23.842,12.949,35.953s11.993,23.178,18.873,33.009c3.343,4.778,8.57,7.521,14.125,7.814
	c-4.646,2.428-9.085,4.983-13.261,7.656c-5.696,3.644-8.387,10.382-6.77,16.947c2.434,9.875,5.922,20.138,10.53,30.462
	c4.608,10.324,9.944,19.826,15.714,28.326c3.837,5.652,10.773,8.422,17.447,6.968c10.039-2.186,20.452-5.397,30.905-9.704
	c8.916-3.673,17.055-7.956,24.618-12.514c4.849,1.923,9.736,3.822,14.9,5.463c3.124,0.992,6.189,1.668,9.289,2.51
	c0.06,2.547,0.567,5.1,1.905,7.439c5.048,8.829,11.219,17.741,18.483,26.406c7.264,8.664,15.001,16.338,22.881,22.929
	c5.239,4.383,12.669,5.144,18.689,1.917c9.054-4.855,18.187-10.801,27.058-17.81c8.871-7.01,16.721-14.485,23.456-22.106
	c4.478-5.066,5.218-12.285,1.862-18.154c-2.849-4.982-6.146-9.977-9.704-14.954c7.545,1.199,14.993,2.115,22.161,2.467
	c7.757,0.381,15.018-4.025,18.263-11.082c2.43-5.284,4.691-10.828,6.749-16.598c2.91,0.934,6.056,1.162,9.14,0.395
	c9.971-2.478,20.287-5.992,30.61-10.603c10.322-4.611,19.769-9.926,28.173-15.655C426.317,359.835,428.81,353.021,427.001,346.506z"
	/>
<circle style="fill:#FFB45A;" cx="256" cy="256" r="143.526"/>
<path style="fill:#FFDC8C;" d="M358.089,74.931c-3.836-5.651-10.772-8.422-17.446-6.968c-10.038,2.186-20.452,5.397-30.905,9.704
	c-10.453,4.308-20.053,9.343-28.62,14.825c-5.696,3.644-8.387,10.382-6.77,16.947c2.433,9.875,5.921,20.138,10.53,30.462
	c4.609,10.324,9.944,19.826,15.714,28.326c3.836,5.651,10.773,8.422,17.447,6.968c10.038-2.186,20.452-5.397,30.905-9.704
	c10.453-4.308,20.052-9.343,28.619-14.825c5.696-3.644,8.387-10.382,6.77-16.947c-2.433-9.875-5.921-20.139-10.53-30.462
	S363.859,83.431,358.089,74.931z"/>
<path style="fill:#FFCD6E;" d="M304.854,156.985c-3.872-12.17-6.589-24.364-8.248-36.177c-1.103-7.853,2.268-16.292,8.478-21.225
	c9.341-7.42,19.712-14.386,30.902-20.54c5.854-3.22,11.666-6.051,17.397-8.546c-3.705-2.443-8.245-3.516-12.74-2.536
	c-10.038,2.186-20.452,5.396-30.905,9.704c-10.453,4.307-20.052,9.343-28.62,14.825c-5.695,3.644-8.387,10.382-6.77,16.947
	c2.433,9.875,5.922,20.138,10.53,30.462c4.609,10.324,9.944,19.826,15.714,28.327c2.584,3.807,6.613,6.157,10.983,6.94
	C309.141,169.409,306.88,163.352,304.854,156.985z"/>
<path style="fill:#FFDC8C;" d="M238.072,59.017c-6.772-3.71-15.179-2.924-21.145,1.977c-8.974,7.372-17.8,15.968-26.098,25.688
	c-8.299,9.72-15.363,19.734-21.16,29.664c-3.853,6.602-3.09,14.769,1.921,20.541c7.537,8.683,16.335,17.213,26.292,25.226
	s20.222,14.826,30.408,20.406c6.772,3.71,15.179,2.924,21.145-1.977c8.974-7.372,17.8-15.969,26.099-25.689
	s15.363-19.734,21.16-29.663c3.853-6.601,3.09-14.769-1.92-20.541c-7.537-8.683-16.334-17.214-26.292-25.227
	C258.524,71.41,248.258,64.597,238.072,59.017z"/>
<path style="fill:#FFCD6E;" d="M226.784,169.013c-10.166-10.251-19.183-21.121-26.94-32.152c-5.156-7.334-6.113-17.562-2.406-25.725
	c5.577-12.279,12.423-24.632,20.512-36.59c4.232-6.255,8.62-12.1,13.101-17.564c-4.988-0.55-10.108,0.712-14.126,4.012
	c-8.974,7.371-17.8,15.968-26.099,25.688c-8.299,9.72-15.363,19.734-21.16,29.664c-3.853,6.601-3.09,14.769,1.92,20.541
	c7.537,8.683,16.335,17.213,26.292,25.226c9.958,8.013,20.222,14.826,30.408,20.406c4.562,2.499,9.827,2.788,14.626,1.324
	C237.498,179.305,232.103,174.376,226.784,169.013z"/>
<path style="fill:#FFDC8C;" d="M290.49,363.823c-5.239-4.382-12.669-5.144-18.688-1.916c-9.054,4.855-18.187,10.799-27.059,17.809
	c-8.871,7.009-16.721,14.485-23.456,22.106c-4.478,5.066-5.217,12.285-1.862,18.154c5.048,8.829,11.219,17.741,18.482,26.405
	c7.264,8.663,15.001,16.338,22.881,22.93c5.239,4.382,12.67,5.144,18.688,1.916c9.054-4.855,18.188-10.799,27.059-17.81
	c8.871-7.009,16.721-14.485,23.456-22.106c4.478-5.066,5.217-12.285,1.862-18.154c-5.048-8.829-11.218-17.742-18.482-26.406
	C306.108,378.089,298.37,370.414,290.49,363.823z"/>
<path style="fill:#FFCD6E;" d="M261.804,457.332c-7.061-10.641-13.018-21.622-17.855-32.526c-3.215-7.25-2.289-16.29,2.33-22.735
	c6.947-9.697,15.01-19.241,24.084-28.228c4.747-4.702,9.558-9.02,14.385-12.99c-4.234-1.333-8.893-1.119-12.948,1.056
	c-9.054,4.855-18.187,10.799-27.059,17.809c-8.871,7.009-16.721,14.485-23.456,22.106c-4.478,5.066-5.217,12.285-1.862,18.154
	c5.049,8.829,11.219,17.741,18.482,26.405c7.264,8.664,15.001,16.338,22.881,22.93c3.529,2.952,8.049,4.107,12.465,3.661
	C269.334,468.104,265.498,462.899,261.804,457.332z"/>
<path style="fill:#FFDC8C;" d="M415.564,271.996c-4-5.536-11.013-8.104-17.642-6.456c-9.97,2.478-20.286,5.992-30.609,10.603
	c-10.323,4.611-19.77,9.926-28.174,15.655c-5.587,3.809-8.081,10.623-6.271,17.138c2.721,9.8,6.508,19.957,11.416,30.141
	c4.908,10.185,10.519,19.527,16.535,27.854c3.999,5.537,11.013,8.104,17.642,6.456c9.971-2.478,20.286-5.992,30.609-10.603
	c10.323-4.611,19.77-9.926,28.174-15.655c5.587-3.809,8.079-10.623,6.271-17.138c-2.721-9.8-6.507-19.957-11.416-30.142
	C427.191,289.666,421.58,280.323,415.564,271.996z"/>
<path style="fill:#FFCD6E;" d="M364.75,355.571c-4.225-12.051-7.297-24.161-9.302-35.919c-1.332-7.818,1.791-16.352,7.854-21.463
	c9.12-7.689,19.283-14.956,30.289-21.433c5.758-3.389,11.484-6.39,17.14-9.05c-3.776-2.334-8.344-3.273-12.809-2.163
	c-9.97,2.478-20.286,5.992-30.609,10.603c-10.323,4.611-19.77,9.926-28.174,15.655c-5.587,3.809-8.079,10.623-6.271,17.138
	c2.721,9.8,6.508,19.957,11.416,30.141c4.908,10.185,10.519,19.527,16.535,27.854c2.695,3.73,6.79,5.962,11.18,6.615
	C369.398,367.863,366.961,361.876,364.75,355.571z"/>
<path style="fill:#FFDC8C;" d="M382.663,144.036c-6.286-2.67-13.618-1.24-18.439,3.596c-7.253,7.276-14.265,15.618-20.716,24.903
	c-6.452,9.284-11.79,18.719-16.021,27.968c-2.813,6.148-1.423,13.27,3.493,17.911c7.396,6.98,15.89,13.717,25.357,19.896
	c9.468,6.179,19.101,11.274,28.556,15.292c6.286,2.671,13.618,1.241,18.439-3.596c7.253-7.276,14.265-15.618,20.716-24.903
	c6.452-9.284,11.79-18.719,16.021-27.968c2.813-6.148,1.423-13.27-3.493-17.911c-7.396-6.982-15.89-13.717-25.357-19.896
	C401.751,153.149,392.118,148.054,382.663,144.036z"/>
<path style="fill:#FFCD6E;" d="M382.383,241.846c-9.848-8.13-18.739-16.907-26.535-25.935c-5.183-6.003-6.923-14.922-4.375-22.432
	c3.83-11.297,8.771-22.772,14.842-34.008c3.176-5.878,6.526-11.407,9.99-16.609c-4.439-0.045-8.834,1.514-12.082,4.772
	c-7.252,7.276-14.265,15.618-20.716,24.903c-6.452,9.284-11.79,18.719-16.021,27.968c-2.813,6.148-1.423,13.27,3.493,17.911
	c7.396,6.98,15.89,13.717,25.357,19.896c9.468,6.179,19.101,11.274,28.556,15.292c4.234,1.8,8.895,1.592,12.991-0.118
	C392.718,249.965,387.535,246.1,382.383,241.846z"/>
<path style="fill:#FFDC8C;" d="M147.806,140.589c-4.248-5.348-11.372-7.592-17.919-5.644c-9.847,2.931-19.991,6.912-30.093,11.989
	s-19.297,10.817-27.431,16.925c-5.407,4.06-7.587,10.98-5.482,17.406c3.166,9.665,7.412,19.639,12.78,29.589
	c5.368,9.95,11.4,19.027,17.79,27.071c4.248,5.348,11.372,7.593,17.919,5.644c9.847-2.931,19.991-6.912,30.093-11.989
	s19.297-10.817,27.431-16.924c5.407-4.06,7.587-10.98,5.483-17.406c-3.165-9.665-7.411-19.639-12.779-29.589
	C160.227,157.71,154.196,148.633,147.806,140.589z"/>
<path style="fill:#FFCD6E;" d="M100.86,226.396c-4.771-11.846-8.393-23.802-10.931-35.458c-1.688-7.748,1.043-16.417,6.867-21.799
	c8.76-8.097,18.58-15.82,29.279-22.794c5.597-3.648,11.18-6.908,16.708-9.824c-3.879-2.159-8.484-2.889-12.895-1.576
	c-9.846,2.931-19.991,6.911-30.093,11.989c-10.102,5.077-19.297,10.817-27.431,16.925c-5.407,4.06-7.586,10.98-5.483,17.406
	c3.166,9.665,7.412,19.639,12.78,29.589c5.368,9.95,11.4,19.027,17.79,27.071c2.861,3.603,7.055,5.645,11.47,6.099
	C106.063,238.464,103.356,232.594,100.86,226.396z"/>
<path style="fill:#FFDC8C;" d="M177.859,326.517c-3.836-5.651-10.772-8.422-17.446-6.968c-10.038,2.186-20.452,5.397-30.905,9.704
	c-10.453,4.307-20.053,9.343-28.62,14.825c-5.696,3.644-8.387,10.382-6.77,16.947c2.433,9.875,5.921,20.138,10.53,30.462
	c4.609,10.324,9.944,19.826,15.714,28.326c3.836,5.651,10.773,8.422,17.447,6.968c10.038-2.186,20.452-5.397,30.905-9.704
	c10.453-4.308,20.052-9.343,28.619-14.825c5.696-3.644,8.387-10.382,6.77-16.947c-2.433-9.875-5.921-20.139-10.53-30.462
	C188.964,344.52,183.629,335.017,177.859,326.517z"/>
<g>
	<path style="fill:#FFCD6E;" d="M124.625,408.572c-3.872-12.17-6.589-24.364-8.248-36.177c-1.103-7.853,2.268-16.292,8.478-21.225
		c9.341-7.42,19.712-14.386,30.902-20.54c5.854-3.22,11.666-6.051,17.397-8.546c-3.705-2.443-8.245-3.516-12.74-2.536
		c-10.038,2.186-20.452,5.396-30.905,9.704c-10.453,4.307-20.052,9.343-28.62,14.825c-5.695,3.644-8.387,10.382-6.77,16.947
		c2.433,9.875,5.922,20.138,10.53,30.462c4.609,10.324,9.944,19.826,15.714,28.327c2.584,3.807,6.613,6.157,10.983,6.94
		C128.911,420.995,126.65,414.938,124.625,408.572z"/>
	<path style="fill:#FFCD6E;" d="M75.563,238.744c-6.473,4.798-9.399,13.109-7.361,20.904c3.068,11.725,7.361,23.842,12.949,35.953
		c5.588,12.11,11.993,23.178,18.872,33.009c4.574,6.535,12.647,9.378,20.306,7.15c11.52-3.351,23.447-7.965,35.39-13.901
		c11.943-5.937,22.882-12.691,32.618-19.907c6.473-4.798,9.4-13.109,7.361-20.904c-3.068-11.725-7.361-23.843-12.949-35.953
		c-5.588-12.11-11.993-23.178-18.872-33.007c-4.574-6.535-12.647-9.378-20.306-7.15c-11.52,3.351-23.447,7.964-35.39,13.901
		S85.299,231.528,75.563,238.744z"/>
</g>
<path style="fill:#FFB45A;" d="M174.88,297.478c-14.155,5.159-28.394,8.957-42.237,11.49c-9.203,1.685-19.315-1.876-25.431-8.954
	c-9.202-10.647-17.92-22.53-25.72-35.42c-4.081-6.742-7.703-13.454-10.924-20.087c-2.699,4.488-3.74,9.89-2.366,15.14
	c3.066,11.724,7.361,23.842,12.949,35.953c5.588,12.11,11.993,23.178,18.872,33.009c4.574,6.535,12.648,9.378,20.306,7.15
	c11.52-3.351,23.447-7.965,35.39-13.901c11.944-5.938,22.882-12.691,32.619-19.907c4.361-3.232,6.934-8.096,7.642-13.284
	C189.314,291.818,182.285,294.778,174.88,297.478z"/>
<path style="fill:#FFCD6E;" d="M167.051,113.711c-8.221-0.768-16.139,3.57-19.916,10.912c-5.682,11.043-10.696,23.225-14.718,36.287
	c-4.022,13.062-6.708,25.888-8.184,38.093c-0.982,8.115,3.233,15.807,10.6,19.347c11.082,5.325,23.336,9.965,36.51,13.607
	c13.173,3.641,26.138,5.973,38.504,7.128c8.221,0.768,16.139-3.57,19.917-10.912c5.682-11.043,10.696-23.225,14.718-36.288
	c4.022-13.063,6.708-25.888,8.184-38.093c0.982-8.115-3.233-15.807-10.6-19.347c-11.082-5.325-23.336-9.965-36.51-13.607
	C192.382,117.198,179.416,114.867,167.051,113.711z"/>
<path style="fill:#FFB45A;" d="M202.638,226.466c-14.327-5.749-27.79-12.593-40.084-20.13c-8.173-5.011-13.451-14.645-13.274-24.23
	c0.265-14.418,1.742-29.448,4.61-44.618c1.5-7.936,3.328-15.534,5.408-22.797c-5.129,1.577-9.619,4.986-12.163,9.932
	c-5.682,11.043-10.696,23.225-14.718,36.287s-6.708,25.888-8.184,38.093c-0.982,8.114,3.233,15.807,10.6,19.347
	c11.082,5.325,23.337,9.965,36.509,13.606c13.173,3.641,26.138,5.973,38.504,7.129c5.537,0.518,10.828-1.432,14.919-4.906
	C217.522,232.023,210.134,229.473,202.638,226.466z"/>
<path style="fill:#FFCD6E;" d="M298.885,284.631c-7.757-0.381-15.018,4.025-18.263,11.082c-4.881,10.614-9.087,22.27-12.323,34.712
	c-3.236,12.442-5.228,24.607-6.109,36.138c-0.586,7.667,3.694,14.72,10.765,17.741c10.635,4.544,22.344,8.395,34.874,11.27
	c12.531,2.874,24.811,4.526,36.479,5.099c7.757,0.381,15.019-4.025,18.263-11.082c4.881-10.614,9.087-22.271,12.323-34.712
	c3.236-12.441,5.228-24.606,6.109-36.138c0.586-7.666-3.694-14.72-10.764-17.74c-10.635-4.544-22.344-8.395-34.874-11.27
	C322.835,286.857,310.553,285.203,298.885,284.631z"/>
<path style="fill:#FFB45A;" d="M337.012,389.112c-13.703-4.807-26.638-10.679-38.504-17.251
	c-7.889-4.37-13.249-13.204-13.482-22.218c-0.351-13.56,0.414-27.746,2.478-42.121c1.079-7.52,2.482-14.737,4.136-21.649
	c-4.755,1.695-8.832,5.086-11.018,9.838c-4.881,10.613-9.087,22.27-12.323,34.712c-3.238,12.441-5.228,24.606-6.109,36.138
	c-0.586,7.666,3.694,14.72,10.765,17.74c10.635,4.544,22.344,8.395,34.874,11.27c12.531,2.874,24.811,4.526,36.48,5.099
	c5.226,0.256,10.116-1.795,13.815-5.23C351.23,393.716,344.181,391.627,337.012,389.112z"/>
<path style="fill:#FFCD6E;" d="M208.435,291.702c-8.185-1.08-16.263,2.955-20.317,10.147c-6.097,10.819-11.57,22.803-16.085,35.702
	s-7.686,25.614-9.625,37.756c-1.289,8.072,2.631,15.918,9.858,19.735c10.871,5.742,22.941,10.844,35.966,14.983
	c13.025,4.139,25.894,6.961,38.206,8.586c8.185,1.08,16.264-2.955,20.317-10.147c6.097-10.819,11.571-22.803,16.085-35.703
	c4.515-12.899,7.686-25.614,9.624-37.756c1.289-8.072-2.631-15.918-9.857-19.735c-10.871-5.742-22.941-10.845-35.967-14.984
	C233.615,296.149,220.747,293.327,208.435,291.702z"/>
<path style="fill:#FFB45A;" d="M239.715,405.727c-14.099-6.289-27.292-13.639-39.29-21.638
	c-7.977-5.318-12.886-15.145-12.345-24.716c0.811-14.398,2.859-29.361,6.301-44.41c1.8-7.873,3.915-15.396,6.27-22.575
	c-5.185,1.382-9.802,4.618-12.532,9.463c-6.097,10.819-11.571,22.802-16.085,35.702c-4.515,12.899-7.686,25.614-9.624,37.756
	c-1.289,8.071,2.631,15.918,9.857,19.735c10.871,5.742,22.942,10.844,35.966,14.983c13.025,4.139,25.894,6.961,38.206,8.586
	c5.514,0.727,10.876-1.02,15.094-4.335C254.377,411.845,247.092,409.017,239.715,405.727z"/>
<path style="fill:#FFCD6E;" d="M276.114,103.381c-8.185-1.08-16.263,2.955-20.317,10.147c-6.097,10.819-11.57,22.803-16.085,35.702
	c-4.515,12.899-7.686,25.614-9.625,37.756c-1.289,8.072,2.631,15.918,9.858,19.735c10.871,5.742,22.941,10.844,35.966,14.983
	c13.025,4.139,25.894,6.961,38.206,8.586c8.185,1.08,16.264-2.955,20.317-10.147c6.097-10.819,11.571-22.803,16.085-35.703
	c4.515-12.899,7.686-25.614,9.624-37.754c1.289-8.072-2.631-15.918-9.857-19.735c-10.871-5.742-22.941-10.845-35.967-14.983
	C301.293,107.827,288.426,105.005,276.114,103.381z"/>
<path style="fill:#FFB45A;" d="M307.393,217.406c-14.099-6.289-27.292-13.639-39.29-21.638
	c-7.977-5.318-12.886-15.145-12.345-24.716c0.811-14.398,2.86-29.361,6.301-44.41c1.8-7.873,3.915-15.396,6.27-22.575
	c-5.185,1.382-9.802,4.618-12.532,9.463c-6.097,10.819-11.571,22.802-16.085,35.702c-4.515,12.899-7.686,25.614-9.624,37.756
	c-1.289,8.071,2.631,15.918,9.857,19.735c10.871,5.742,22.942,10.844,35.966,14.983c13.025,4.139,25.894,6.961,38.206,8.586
	c5.514,0.727,10.876-1.02,15.094-4.335C322.056,223.523,314.77,220.695,307.393,217.406z"/>
<path style="fill:#FFCD6E;" d="M286.926,227.159c-5.662,5.732-7.281,14.394-4.071,21.784c4.828,11.116,10.927,22.433,18.305,33.544
	c7.378,11.111,15.403,21.067,23.708,29.727c5.521,5.757,13.934,7.329,21.162,3.955c10.871-5.077,21.95-11.463,32.842-19.159
	c10.892-7.697,20.668-16.046,29.183-24.67c5.662-5.732,7.281-14.394,4.071-21.785c-4.828-11.117-10.927-22.433-18.305-33.545
	c-7.378-11.111-15.403-21.067-23.708-29.727c-5.521-5.757-13.934-7.329-21.162-3.955c-10.871,5.077-21.95,11.463-32.842,19.159
	C305.217,210.186,295.443,218.536,286.926,227.159z"/>
<path style="fill:#FFB45A;" d="M394.07,269.982c-13.197,7.266-26.687,13.202-39.977,17.826c-8.836,3.074-19.374,1.106-26.503-4.952
	c-10.724-9.111-21.161-19.519-30.844-31.06c-5.066-6.038-9.674-12.115-13.873-18.176c-1.98,4.847-2.18,10.346-0.019,15.325
	c4.828,11.116,10.926,22.433,18.305,33.544c7.378,11.111,15.403,21.067,23.708,29.727c5.521,5.757,13.934,7.329,21.162,3.955
	c10.871-5.077,21.95-11.463,32.842-19.159c10.892-7.697,20.668-16.046,29.184-24.67c3.814-3.862,5.612-9.063,5.517-14.298
	C407.466,262.177,400.974,266.18,394.07,269.982z"/>
<path style="fill:#FFDC8C;" d="M263.881,191.676c-6.84-4.623-15.87-4.623-22.71,0c-10.289,6.955-20.54,15.23-30.344,24.753
	c-9.803,9.523-18.322,19.481-25.481,29.475c-4.76,6.645-4.76,15.416,0,22.06c7.16,9.995,15.678,19.951,25.481,29.475
	c9.803,9.523,20.054,17.798,30.343,24.753c6.84,4.623,15.87,4.623,22.71,0c10.289-6.955,20.541-15.23,30.344-24.753
	c9.803-9.523,18.322-19.48,25.481-29.475c4.76-6.645,4.76-15.415,0-22.06c-7.159-9.995-15.678-19.953-25.481-29.475
	C284.42,206.905,274.169,198.631,263.881,191.676z"/>
<path style="fill:#FFCD6E;" d="M240.914,307.661c-9.803-11.926-18.322-24.396-25.481-36.914c-4.76-8.322-4.76-19.307,0-27.628
	c7.159-12.518,15.678-24.989,25.481-36.915c5.128-6.239,10.382-12.024,15.698-17.395c-5.256-1.081-10.831-0.249-15.439,2.866
	c-10.289,6.955-20.54,15.229-30.344,24.753c-9.803,9.523-18.322,19.48-25.481,29.475c-4.759,6.644-4.759,15.416,0,22.06
	c7.16,9.995,15.678,19.953,25.481,29.474c9.803,9.523,20.054,17.798,30.343,24.753c4.608,3.115,10.185,3.947,15.441,2.866
	C251.296,319.686,246.042,313.9,240.914,307.661z"/>
<g>
</g>
<g>
</g>
<g>
</g>
<g>
</g>
<g>
</g>
<g>
</g>
<g>
</g>
<g>
</g>
<g>
</g>
<g>
</g>
<g>
</g>
<g>
</g>
<g>
</g>
<g>
</g>
<g>
</g>
</svg>
