<?xml version="1.0" encoding="iso-8859-1"?>
<!-- Generator: Adobe Illustrator 19.0.0, SVG Export Plug-In . SVG Version: 6.00 Build 0)  -->
<svg version="1.1" id="Capa_1" xmlns="http://www.w3.org/2000/svg" xmlns:xlink="http://www.w3.org/1999/xlink" x="0px" y="0px"
	 viewBox="0 0 512 512" style="enable-background:new 0 0 512 512;" xml:space="preserve">
<path style="fill:#FFDBA9;" d="M308.217,453.701c0,31.879-25.589,57.789-57.359,58.289c-0.26,0-0.51,0.01-0.76,0.01
	c-31.929,0.08-58.339-26.019-58.479-58.039c-0.06-14.22,4.97-27.249,13.36-37.389c11.92-14.39,18.06-32.689,18.06-51.369v-51.079
	h53.759v51.399c0,18.84,6.71,36.959,18.54,51.629C303.398,427.142,308.217,439.852,308.217,453.701z"/>
<path style="fill:#FFC473;" d="M308.217,453.701c0,31.879-25.589,57.789-57.359,58.289c-0.26,0-0.51,0.01-0.76,0.01V314.124h26.699
	v51.399c0,18.84,6.71,36.959,18.54,51.629C303.398,427.142,308.217,439.852,308.217,453.701z"/>
<path style="fill:#0F9887;" d="M265.36,302.815c0,0,11.735-129.032-34.096-302.815l-55.792,13.736c0,0,33.198,126.897,35.277,272.96
	L265.36,302.815z"/>
<path style="fill:#11A892;" d="M220.944,298.379c0,0-2.382-125.134,55.011-289.941l56.71,20.977c0,0-44.473,116.002-56.882,256.722
	L220.944,298.379z"/>
<path style="fill:#00CB7E;" d="M230.713,337.028c0,0,19.207-141.364,130.875-279.086l41.291,37.005
	c0,0-94.484,112.243-126.081,254.872L230.713,337.028z"/>
<path style="fill:#00DD7E;" d="M276.797,349.818c0,0-13.45-150.954-124.027-282.629l-43.649,34.192
	c0,0,91.832,104.031,113.922,248.437H276.797z"/>
<g>
</g>
<g>
</g>
<g>
</g>
<g>
</g>
<g>
</g>
<g>
</g>
<g>
</g>
<g>
</g>
<g>
</g>
<g>
</g>
<g>
</g>
<g>
</g>
<g>
</g>
<g>
</g>
<g>
</g>
</svg>
