<svg id="Layer_1" enable-background="new 0 0 512 512" height="512" viewBox="0 0 512 512" width="512" xmlns="http://www.w3.org/2000/svg"><g><g><path d="m387.351 242.053c-11.556-34.669-44-58.053-80.544-58.053h-122.807c-57.438 0-104 46.562-104 104 0 57.438 46.562 104 104 104h256c30.928 0 56-25.072 56-56 0-30.928-25.072-56-56-56-23.888 0-45.095-15.286-52.649-37.947z" fill="#a55023"/></g><g><path d="m480 392h-448c-8.837 0-16 7.163-16 16v16c0 8.837 7.163 16 16 16h448c8.837 0 16-7.163 16-16v-16c0-8.837-7.163-16-16-16z" fill="#f57828"/></g><g><path d="m240 392h-208c-8.837 0-16 7.163-16 16v16c0 8.837 7.163 16 16 16h208c8.837 0 16-7.163 16-16v-16c0-8.837-7.163-16-16-16z" fill="#faa037"/></g><g><path d="m275.351 242.053c-11.556-34.669-44-58.053-80.544-58.053h-10.807c-57.438 0-104 46.562-104 104 0 57.438 46.562 104 104 104h144c30.928 0 56-25.072 56-56 0-30.928-25.072-56-56-56-23.888 0-45.095-15.286-52.649-37.947z" fill="#fab991"/></g><g><path d="m184 360c-39.701 0-72-32.299-72-72s32.299-72 72-72h10.807c22.806 0 42.974 14.537 50.186 36.172 11.928 35.785 45.286 59.828 83.007 59.828 13.234 0 24 10.766 24 24s-10.766 24-24 24z" fill="#d7322d"/></g><g><path d="m296 352h-256c-4.418 0-8 3.582-8 8v24c0 4.418 3.582 8 8 8h256c4.418 0 8-3.582 8-8v-24c0-4.418-3.582-8-8-8z" fill="#a55023"/></g><g><path d="m160 352h-120c-4.418 0-8 3.582-8 8v24c0 4.418 3.582 8 8 8h120c4.418 0 8-3.582 8-8v-24c0-4.418-3.582-8-8-8z" fill="#d26e28"/></g><g><circle cx="184" cy="288" fill="#fab991" r="40"/></g><g><circle cx="184" cy="288" fill="#d7322d" r="16"/></g><g><path d="m368 152h-192c-8.837 0-16-7.163-16-16v-64h288c0 44.183-35.817 80-80 80z" fill="#bedcf0"/></g><g><path d="m368 136h-208v-64h272c0 35.346-28.654 64-64 64z" fill="#a5c3dc"/></g><g><path d="m40 120h120v-48h-120c-13.255 0-24 10.745-24 24 0 13.255 10.745 24 24 24z" fill="#353744"/></g><g><path d="m16 96h144v-24h-120c-13.255 0-24 10.745-24 24z" fill="#55525b"/></g><g><circle cx="40" cy="96" fill="#a5c3dc" r="8"/></g><g><circle cx="88" cy="96" fill="#a5c3dc" r="8"/></g><g><circle cx="136" cy="96" fill="#a5c3dc" r="8"/></g></g></svg>