<?xml version="1.0" encoding="iso-8859-1"?>
<!-- Generator: Adobe Illustrator 19.0.0, SVG Export Plug-In . SVG Version: 6.00 Build 0)  -->
<svg version="1.1" id="Capa_1" xmlns="http://www.w3.org/2000/svg" xmlns:xlink="http://www.w3.org/1999/xlink" x="0px" y="0px"
	 viewBox="0 0 512 512" style="enable-background:new 0 0 512 512;" xml:space="preserve">
<path style="fill:#AE8B70;" d="M289.004,8.258C272.473,8.258,272.473,0,255.943,0c-16.504,0-16.504,8.258-33.008,8.258
	c-11.236,0-14.821-3.83-21.175-6.273c-5.738-2.207-11.792,2.35-11.227,8.472c1.679,18.186,8.074,56.021,32.435,80.382h66.064
	c24.365-24.365,30.758-62.208,32.435-80.39c0.565-6.12-5.482-10.671-11.222-8.474C303.862,4.417,300.277,8.258,289.004,8.258z"/>
<path style="fill:#9B735A;" d="M281.798,33.097c-4.548-0.524-8.653,2.645-9.218,7.169c-0.005,0.036-0.009,0.073-0.014,0.111
	c-0.83,6.701-6.502,11.762-13.254,11.762h-6.627c-6.755,0-12.427-5.063-13.255-11.767c-0.004-0.033-0.008-0.066-0.012-0.098
	c-0.556-4.532-4.645-7.806-9.21-7.177c-4.532,0.565-7.742,4.685-7.177,9.21c2.524,20.339,6.274,37.589,11.129,51.29
	c0.904,2.547,2.93,4.37,5.323,5.12v0.38h33.032v-0.38c2.393-0.749,4.419-2.573,5.323-5.12c4.847-13.653,8.589-30.911,11.129-51.282
	C289.532,37.79,286.323,33.661,281.798,33.097z"/>
<path style="fill:#AE8B70;" d="M445.935,472.569V301.842c0-102.99-80.085-190.705-183.01-194.364
	c-108.055-3.841-196.86,82.614-196.86,189.812v175.279c0,4.335-1.166,8.767-4.062,11.993c-2.872,3.199-4.514,7.51-4.144,12.24
	C58.545,505.574,66.551,512,75.35,512h361.3c8.799,0,16.804-6.425,17.491-15.198c0.37-4.729-1.271-9.041-4.144-12.24
	C447.101,481.337,445.935,476.905,445.935,472.569z"/>
<path style="fill:#9B735A;" d="M392.258,462.452H171.011c-9.122,0-16.516-7.395-16.516-16.516V297.29
	c0-39.539,8.583-76.197,23.249-106.545c18.709-38.713,59.664-59.098,102.658-58.618c12.542,0.14,23.362-6.792,29.074-16.976
	c-14.807-4.45-30.397-7.099-46.55-7.673C154.87,103.637,66.065,190.092,66.065,297.29l-0.001,175.279
	c0,4.336-1.166,8.769-4.063,11.996c-2.872,3.199-4.513,7.51-4.141,12.239C58.547,505.576,66.552,512,75.351,512h85.699
	c-6.834,0-12.377-5.535-12.387-12.369l0,0c-0.01-6.848,5.539-12.405,12.387-12.405h231.207c6.841,0,12.387-5.546,12.387-12.387l0,0
	C404.645,467.997,399.099,462.452,392.258,462.452z"/>
<path style="fill:#FFDC64;" d="M280.774,115.613h-49.548c-9.122,0-16.516-7.395-16.516-16.516l0,0
	c0-9.122,7.395-16.516,16.516-16.516h49.548c9.122,0,16.516,7.395,16.516,16.516l0,0
	C297.29,108.218,289.896,115.613,280.774,115.613z"/>
<g>
	<path style="fill:#FFC850;" d="M247.742,99.097c0-9.122,7.395-16.516,16.516-16.516h-33.032c-9.121,0-16.516,7.394-16.516,16.516
		c0,9.121,7.395,16.516,16.516,16.516h33.032C255.137,115.613,247.742,108.218,247.742,99.097z"/>
	<path style="fill:#FFC850;" d="M313.806,264.258c0,31.926-25.881,57.806-57.806,57.806
		C256,290.139,281.881,264.258,313.806,264.258z"/>
	<path style="fill:#FFC850;" d="M198.194,264.258c0,31.926,25.881,57.806,57.806,57.806
		C256,290.139,230.119,264.258,198.194,264.258z"/>
</g>
<path style="fill:#FFDC64;" d="M313.807,239.484c-4.565,0-8.258,3.694-8.258,8.258v16.516c0,27.323-22.226,49.548-49.548,49.548
	s-49.548-22.226-49.548-49.548v-16.516c0-4.565-3.694-8.258-8.258-8.258s-8.258,3.694-8.258,8.258v16.516
	c0,36.427,29.637,66.065,66.064,66.065s66.065-29.637,66.065-66.065v-16.516C322.065,243.177,318.371,239.484,313.807,239.484z"/>
<g>
	<path style="fill:#FFC850;" d="M313.806,338.581c0,31.926-25.881,57.806-57.806,57.806
		C256,364.461,281.881,338.581,313.806,338.581z"/>
	<path style="fill:#FFC850;" d="M198.194,338.581c0,31.926,25.881,57.806,57.806,57.806
		C256,364.461,230.119,338.581,198.194,338.581z"/>
</g>
<path style="fill:#FFDC64;" d="M313.807,313.806c-4.565,0-8.258,3.694-8.258,8.258v16.516c0,27.323-22.226,49.548-49.548,49.548
	s-49.548-22.226-49.548-49.548v-16.516c0-4.565-3.694-8.258-8.258-8.258s-8.258,3.694-8.258,8.258v16.516
	c0,36.427,29.637,66.065,66.064,66.065s66.065-29.637,66.065-66.065v-16.516C322.065,317.5,318.371,313.806,313.807,313.806z"/>
<path style="fill:#FFC850;" d="M256,437.677c-4.564,0-8.258-3.694-8.258-8.258V256c0-4.565,3.694-8.258,8.258-8.258
	c4.565,0,8.258,3.694,8.258,8.258v173.419C264.258,433.984,260.565,437.677,256,437.677z"/>
<path style="fill:#FFDC64;" d="M252.87,176.906c-20.051,24.043-20.051,59.823,0,83.866c1.591,1.908,4.669,1.907,6.26,0
	c20.05-24.043,20.05-59.823,0-83.866C257.539,174.998,254.461,174.998,252.87,176.906z"/>
<g>
</g>
<g>
</g>
<g>
</g>
<g>
</g>
<g>
</g>
<g>
</g>
<g>
</g>
<g>
</g>
<g>
</g>
<g>
</g>
<g>
</g>
<g>
</g>
<g>
</g>
<g>
</g>
<g>
</g>
</svg>
