<svg id="Capa_1" enable-background="new 0 0 512 512" height="512" viewBox="0 0 512 512" width="512" xmlns="http://www.w3.org/2000/svg"><g><g><path d="m138.509 233.294h-10.311c-28.913 0-52.436-23.523-52.436-52.437s23.523-52.438 52.436-52.438h70.509c2.01-10.447 2.861-21.58 2.157-33.738h-72.666c-47.593 0-86.175 38.582-86.175 86.175 0 46.08 36.167 83.712 81.664 86.059 0 0 13.464-5.953 16.145-11.897 2.335-5.175-1.323-21.724-1.323-21.724z" fill="#b9e4ef"/></g><g><path d="m298.893 68.125-61.109-9.738-50.988 9.738c12.162 55.245-5.261 90.111-26.495 126.709l87.954 27.898 78.253-27.898c-21.504-37.541-39.537-72.552-27.615-126.709z" fill="#ecf9f9"/></g><g><path d="m254.46 68.125c-3.848 42.892 12.191 73.547 30.841 106.105 3.863 6.744 7.839 13.57 11.772 20.604l20.12 8.7 9.315-8.7c-21.504-37.54-39.537-72.551-27.615-126.708l-12.679-11.629z" fill="#daf1f4"/></g><g><path d="m289.756 4.443c.6-2.242-1.089-4.443-3.41-4.443h-87.001c-2.321 0-4.011 2.202-3.41 4.443l7.372 27.53 37.678 7.798 41.4-7.798z" fill="#d8aa8b"/></g><g><path d="m223.623 94.681h38.442c2.08 0 3.9-1.397 4.438-3.406l6.199-23.15-32.592-9.738-27.125 9.738 6.199 23.15c.539 2.009 2.359 3.406 4.439 3.406z" fill="#d8aa8b"/></g><g><path d="m254.611 94.681h7.455c2.08 0 3.9-1.397 4.438-3.406l6.199-23.15h-18.243c-.842 9.389-.732 18.191.151 26.556z" fill="#c6865c"/></g><g><path d="m160.301 194.834c-22.669 39.072-49.683 80.117-49.683 150.039 0 69.424 30.544 111.993 74.816 130.468 1.539.642 1.088 2.924-.579 2.924-8.678 0-16.307 6.356-17.242 14.983-1.102 10.159 6.828 18.752 16.766 18.752h116.455c9.083 0 16.898-6.98 17.325-16.053.456-9.687-7.263-17.683-16.849-17.683h-.476c-1.668 0-2.118-2.282-.579-2.924 44.272-18.475 74.816-61.044 74.816-130.468 0-69.088-26.164-110.936-48.563-150.039h-166.207z" fill="#f9efaf"/></g><g><path d="m300.255 475.34c44.272-18.475 74.816-61.044 74.816-130.468 0-69.089-26.164-110.936-48.563-150.039h-29.435c18.874 33.745 36.791 72.263 36.791 129.435 0 69.424-30.544 111.993-74.816 130.468-1.539.642-1.088 2.924.579 2.924h.476c9.586 0 17.305 7.997 16.849 17.684-.427 9.073-8.242 16.053-17.325 16.053h-91.704c-.137.604-.241 1.221-.31 1.85-1.102 10.16 6.828 18.753 16.766 18.753h116.455c9.083 0 16.898-6.98 17.325-16.053.456-9.687-7.263-17.684-16.849-17.684h-.476c-1.667.001-2.118-2.281-.579-2.923z" fill="#f6e266"/></g><g><ellipse cx="418.464" cy="473.538" fill="#c8ea73" rx="51.512" ry="38.462"/></g><g><ellipse cx="418.464" cy="390.426" fill="#c8ea73" rx="38.462" ry="51.512" transform="matrix(.707 -.707 .707 .707 -153.507 410.252)"/></g><g><path d="m443.179 439.783c3.951 5.442 6.194 11.676 6.194 18.301 0 21.242-23.063 38.463-51.512 38.463-8.956 0-17.378-1.707-24.714-4.708 8.715 12.007 25.741 20.161 45.317 20.161 28.45 0 51.512-17.22 51.512-38.463.001-14.555-10.827-27.221-26.797-33.754z" fill="#b7e445"/></g><g><path d="m445.662 363.228c-5.603-5.603-11.855-9.965-18.285-13.02 18.095 19.923 21.333 46.764 6.909 61.189-10.837 10.837-28.682 11.704-45.337 3.792.748.823 1.521 1.635 2.319 2.433 20.117 20.117 48.601 24.248 63.622 9.228 15.02-15.02 10.888-43.505-9.228-63.622z" fill="#b7e445"/></g><g><circle cx="456.252" cy="473.538" fill="#e28086" r="13.725"/></g><g><path d="m456.252 459.813c-2.606 0-5.042.726-7.117 1.987-.692 5.387-2.871 10.45-6.228 14.956 1.448 6.027 6.874 10.507 13.345 10.507 7.509 0 13.609-6.03 13.723-13.512.001-.071.002-.142.002-.213 0-7.581-6.145-13.725-13.725-13.725z" fill="#dd636e"/></g><g><circle cx="391.745" cy="363.706" fill="#e28086" r="13.725"/></g><g><path d="m272.375 483.713h-59.06c-4.267 0-7.726-3.459-7.726-7.726 0-4.268 3.459-7.726 7.726-7.726h59.06c4.267 0 7.726 3.459 7.726 7.726 0 4.268-3.459 7.726-7.726 7.726z" fill="#f6e266"/></g><path d="m274.339 483.461c3.316-.869 5.762-3.886 5.762-7.474 0-2.908-1.606-5.439-3.979-6.758.631 1.91.931 3.971.83 6.115-.141 2.992-1.085 5.756-2.613 8.117z" fill="#f4dd45"/><g><path d="m137.174 352.599c-4.267 0-7.726-3.459-7.726-7.726 0-55.429 17.085-89.108 39.42-127.376 2.151-3.685 6.885-4.929 10.567-2.779 3.686 2.151 4.93 6.882 2.779 10.567-21.141 36.224-37.313 68.031-37.313 119.588-.001 4.267-3.46 7.726-7.727 7.726z" fill="#fff9e2"/></g><g><path d="m327.337 31.973h-140.541c-9.983 0-18.076 8.093-18.076 18.076 0 9.983 8.093 18.076 18.076 18.076h114.266c14.811 0 27.943-9.524 32.543-23.603l.88-2.693c1.588-4.861-2.034-9.856-7.148-9.856z" fill="#b9e4ef"/></g><g><path d="m282.384 31.974h-79.078l9.68 36.151h59.717z" fill="#ecd5c6"/></g></g></svg>