<svg height="512pt" viewBox="-98 0 512 512" width="512pt" xmlns="http://www.w3.org/2000/svg"><path d="m316.832031 512h-316.832031l37.0625-354.523438h242.703125zm0 0" fill="#ff633d"/><path d="m316.832031 512h-158.417969v-354.523438h121.351563zm0 0" fill="#e70021"/><path d="m277.699219 114.71875h-238.566407c2.398438-63.660156 54.984376-114.71875 119.28125-114.71875 64.296876 0 116.886719 51.058594 119.285157 114.71875zm0 0" fill="#dfcdbd"/><path d="m277.699219 114.71875h-119.285157v-114.71875c64.296876 0 116.886719 51.058594 119.285157 114.71875zm0 0" fill="#c8ad92"/><path d="m14.554688 96.804688h287.71875v90.640624h-287.71875zm0 0" fill="#ffc473"/><g fill="#f0e7df"><path d="m252.703125 455.996094h-188.574219l13.015625-124.570313 3.945313-3.796875c1.109375-1.058594 11.28125-10.558594 26.683594-15.484375 6.09375-1.949219 12.199218-2.917969 18.214843-2.917969 11.316407 0 22.316407 3.417969 32.425781 10.089844 3.566407 2.347656 7.023438 5.105469 10.339844 8.265625 23.65625 22.535157 46.515625 8.960938 49.203125 7.222657l20.621094-13.917969zm0 0"/><path d="m90.980469 219.953125h29.222656v29.21875h-29.222656zm0 0"/><path d="m129.195312 259.996094h29.21875v29.222656h-29.21875zm0 0"/></g><path d="m120.203125 380.753906h29.222656v29.222656h-29.222656zm0 0" fill="#ececec"/><path d="m238.578125 320.886719 14.125 135.109375h-94.289063v-136.679688c3.566407 2.347656 7.023438 5.105469 10.339844 8.265625 23.65625 22.535157 46.515625 8.960938 49.203125 7.222657zm0 0" fill="#dfcdbd"/><path d="m158.414062 96.804688h143.859376v90.640624h-143.859376zm0 0" fill="#ffb74f"/></svg>