<svg height="512pt" viewBox="0 0 512 512" width="512pt" xmlns="http://www.w3.org/2000/svg"><path d="m366.652344 128.234375-26.835938-13.417969 54.183594-114.816406 26.835938 13.417969zm0 0" fill="#575f64"/><path d="m410.277344 156.625-24.960938-16.640625 69.621094-111.59375 24.960938 16.636719zm0 0" fill="#575f64"/><path d="m453.402344 267.101562h-394.804688c-10.796875-16.5-12.898437-37.203124-5.398437-55.503906 5.699219-14.097656 16.800781-25.199218 30.300781-31.5.300781-14.699218 6.597656-29.097656 17.398438-39.898437 10.800781-10.800781 24.902343-16.800781 39.902343-17.097657 6-13.800781 17.097657-24.601562 31.199219-30.300781 14.097656-6 29.699219-6 43.5-.902343 10.800781-10.199219 25.5-15.300782 40.5-15.300782s29.699219 5.101563 40.5 15.300782c13.800781-5.097657 29.402344-5.097657 43.5.902343 14.101562 5.699219 25.199219 16.5 31.199219 30.300781 15 .296876 29.101562 6.296876 39.902343 17.097657 10.800782 10.800781 17.097657 25.199219 17.398438 39.898437 13.5 6.300782 24.601562 17.402344 30.300781 31.5 7.5 18.300782 5.398438 39.003906-5.398437 55.503906zm0 0" fill="#fff5f5"/><path d="m453.402344 267.101562h-197.402344v-190.503906c15 0 29.699219 5.101563 40.5 15.300782 13.800781-5.097657 29.402344-5.097657 43.5.902343 14.101562 5.699219 25.199219 16.5 31.199219 30.300781 15 .296876 29.101562 6.296876 39.902343 17.097657 10.800782 10.800781 17.097657 25.199219 17.398438 39.898437 13.5 6.300782 24.601562 17.402344 30.300781 31.5 7.5 18.300782 5.398438 39.003906-5.398437 55.503906zm0 0" fill="#efe2dd"/><path d="m211 151h30v30h-30zm0 0" fill="#efe2dd"/><path d="m271 181h30v30h-30zm0 0" fill="#cdbfba"/><path d="m151 181h30v30h-30zm0 0" fill="#efe2dd"/><path d="m121 421h270v91h-270zm0 0" fill="#c5d3dd"/><path d="m256 421h135v91h-135zm0 0" fill="#9facba"/><path d="m512 241v15c0 15.300781-2.101562 30.300781-5.398438 45l-55.601562 30h-390l-55.601562-30c-3.296876-14.699219-5.398438-29.699219-5.398438-45v-15zm0 0" fill="#c5d3dd"/><path d="m512 241v15c0 15.300781-2.101562 30.300781-5.398438 45l-55.601562 30h-195v-90zm0 0" fill="#9facba"/><path d="m506.601562 301c-24.601562 113.699219-110.503906 146.101562-115.601562 150h-270c-4.800781-3.898438-91-36.902344-115.601562-150zm0 0" fill="#deecf1"/><path d="m506.601562 301c-24.601562 113.699219-110.503906 146.101562-115.601562 150h-135v-150zm0 0" fill="#c5d3dd"/></svg>