<?xml version="1.0" encoding="iso-8859-1"?>
<!-- Generator: Adobe Illustrator 19.0.0, SVG Export Plug-In . SVG Version: 6.00 Build 0)  -->
<svg version="1.1" id="Capa_1" xmlns="http://www.w3.org/2000/svg" xmlns:xlink="http://www.w3.org/1999/xlink" x="0px" y="0px"
	 viewBox="0 0 512 512" style="enable-background:new 0 0 512 512;" xml:space="preserve">
<g>
	<path style="fill:#A9DAD9;" d="M418.336,395.142l-52.908-293.67L331.74,88.788L134.171,481.095l6.899,11.246
		C148.563,504.555,161.865,512,176.195,512h79.799h80.177c14.379,0,27.719-7.496,35.197-19.777l41.611-68.343
		c2.524-4.145,4.266-8.67,5.202-13.351C419.187,405.494,419.261,400.278,418.336,395.142z"/>
	<polygon style="fill:#A9DAD9;" points="363.721,266.302 363.721,266.302 387.92,400.623 	"/>
</g>
<path style="fill:#C2E2DD;" d="M331.74,88.788l-75.747-28.523l-109.435,41.207L93.664,395.065c-0.93,5.161-0.85,10.406,0.171,15.462
	c0.949,4.7,2.71,9.238,5.259,13.392l35.077,57.175h42.024l187.526-214.793L331.74,88.788z"/>
<path style="fill:#A9A499;" d="M393.583,73.668C393.583,32.982,331.982,0,255.993,0s-137.59,32.982-137.59,73.668
	c0,0.099,0,0.197,0.001,0.295c0.112,15.298,12.856,27.51,28.154,27.51h218.871c15.298,0,28.042-12.212,28.154-27.51
	C393.583,73.865,393.583,73.766,393.583,73.668z"/>
<path style="fill:#D4CFC2;" d="M153.08,70.567h154.5c15.333,0,27.827-12.39,27.859-27.723c0-0.027,0-0.054,0-0.081
	c0-0.519-0.01-1.036-0.03-1.552c-0.697-18.036-14.074-33.171-31.782-36.671C288.784,1.604,272.739,0,255.993,0
	c-48.942,0-91.912,13.683-116.299,34.293C125.069,46.652,133.932,70.567,153.08,70.567z"/>
<g>
	<circle style="fill:#6F6B63;" cx="186.452" cy="52.539" r="7.726"/>
	<circle style="fill:#6F6B63;" cx="232.811" cy="52.539" r="7.726"/>
	<circle style="fill:#6F6B63;" cx="279.169" cy="52.539" r="7.726"/>
	<circle style="fill:#6F6B63;" cx="325.527" cy="52.539" r="7.726"/>
	<circle style="fill:#6F6B63;" cx="212.207" cy="21.634" r="7.726"/>
	<circle style="fill:#6F6B63;" cx="258.565" cy="21.634" r="7.726"/>
	<circle style="fill:#6F6B63;" cx="304.923" cy="21.634" r="7.726"/>
</g>
<path style="fill:#FFF9EB;" d="M124.08,400.545c-0.229,1.27-0.212,2.57,0.049,3.863c0.243,1.204,0.684,2.332,1.308,3.351
	l1.699,2.769l40.277,65.652c1.859,3.032,5.225,4.915,8.781,4.915h159.976c3.571,0,6.942-1.895,8.8-4.945l39.955-65.623l1.657-2.721
	c0.619-1.016,1.054-2.14,1.294-3.34c0.258-1.288,0.273-2.581,0.044-3.844l-24.199-134.322H148.265L124.08,400.545z"/>
<g>
	<circle style="fill:#E2DDD0;" cx="227.66" cy="346.141" r="7.726"/>
	<circle style="fill:#E2DDD0;" cx="227.66" cy="299.783" r="7.726"/>
	<circle style="fill:#E2DDD0;" cx="274.018" cy="315.235" r="7.726"/>
	<circle style="fill:#E2DDD0;" cx="258.565" cy="377.046" r="7.726"/>
	<circle style="fill:#E2DDD0;" cx="304.923" cy="361.594" r="7.726"/>
	<circle style="fill:#E2DDD0;" cx="289.471" cy="438.857" r="7.726"/>
	<circle style="fill:#E2DDD0;" cx="243.112" cy="438.857" r="7.726"/>
</g>
<path style="fill:#D4CFC2;" d="M363.721,266.302h-23.552l19.221,106.695c3.126,17.349-0.21,35.242-9.378,50.3l0,0
	c-13.089,21.499-36.439,34.619-61.609,34.619H156.208l11.204,18.264c1.859,3.032,5.225,4.915,8.781,4.915h159.975
	c3.595,0,6.93-1.874,8.8-4.945l39.955-65.623l1.657-2.721c0.619-1.016,1.054-2.14,1.294-3.34c0.258-1.288,0.273-2.581,0.044-3.844
	L363.721,266.302z"/>
<g>
</g>
<g>
</g>
<g>
</g>
<g>
</g>
<g>
</g>
<g>
</g>
<g>
</g>
<g>
</g>
<g>
</g>
<g>
</g>
<g>
</g>
<g>
</g>
<g>
</g>
<g>
</g>
<g>
</g>
</svg>
