<svg id="Capa_1" enable-background="new 0 0 512 512" height="512" viewBox="0 0 512 512" width="512" xmlns="http://www.w3.org/2000/svg"><path d="m331.356 512h-150.712c-20.912 0-37.865-16.953-37.865-37.865h226.442c0 20.912-16.953 37.865-37.865 37.865z" fill="#e0e0e0"/><path d="m350.917 474.135c0 20.912-16.953 37.865-37.865 37.865h18.304c20.912 0 37.865-16.952 37.865-37.865z" fill="#ccc"/><path d="m439.865 93.694c-.244 0-.491-.011-.739-.035-197.171-18.953-341.155-78.396-342.587-78.994-3.886-1.624-5.72-6.09-4.096-9.977 1.624-3.886 6.091-5.72 9.977-4.097 1.412.589 143.417 59.165 338.166 77.883 4.193.403 7.265 4.129 6.862 8.322-.38 3.945-3.7 6.898-7.583 6.898z" fill="#19b2db"/><path d="m439.856 110.011h-367.712c-8.745 0-15.834-7.089-15.834-15.834 0-8.745 7.089-15.834 15.834-15.834h367.711c8.745 0 15.834 7.089 15.834 15.834.001 8.745-7.089 15.834-15.833 15.834z" fill="#e0e0e0"/><path d="m439.856 78.343h-18.304c8.745 0 15.834 7.089 15.834 15.834s-7.089 15.834-15.834 15.834h18.304c8.745 0 15.834-7.089 15.834-15.834s-7.09-15.834-15.834-15.834z" fill="#ccc"/><path d="m374.553 474.135h-237.106c-10.444 0-19.191-7.911-20.235-18.303l-34.768-345.821h347.112l-34.768 345.821c-1.044 10.392-9.791 18.303-20.235 18.303z" fill="#73cdff"/><path d="m411.252 110.011-34.768 345.821c-1.045 10.392-9.791 18.303-20.236 18.303h18.304c10.444 0 19.191-7.911 20.236-18.303l34.768-345.821z" fill="#40c5ff"/><path d="m417.905 225.897h-95.318c-14.161-31.289-38.693-51.981-66.587-51.981s-52.426 20.692-66.587 51.981h-95.318l12.507 124.407h82.81c14.161 31.289 38.693 51.981 66.587 51.981s52.426-20.692 66.587-51.981h82.81z" fill="#ffeca1"/><path d="m399.601 225.897-12.507 124.407h18.304l12.507-124.407z" fill="#ffdf85"/></svg>