<?xml version="1.0" encoding="iso-8859-1"?>
<!-- Generator: Adobe Illustrator 19.0.0, SVG Export Plug-In . SVG Version: 6.00 Build 0)  -->
<svg version="1.1" id="Capa_1" xmlns="http://www.w3.org/2000/svg" xmlns:xlink="http://www.w3.org/1999/xlink" x="0px" y="0px"
	 viewBox="0 0 509.287 509.287" style="enable-background:new 0 0 509.287 509.287;" xml:space="preserve">
<path style="fill:#F7CFA2;" d="M456.392,446.898l-23.057-24.074c-3.052-3.052-4.408-7.121-4.408-11.189V198.019H254.644H80.699
	v213.277c0,4.069-1.695,8.138-4.408,11.189l-23.057,24.074c-4.408,4.747-6.442,11.189-4.069,17.293
	c2.713,7.46,10.172,11.868,17.971,10.85l46.453-6.781c0,0,5.086,0,13.563,0c32.212,8.477,77.648,13.902,127.83,13.902
	s95.619-5.425,127.83-13.902c8.477,0,13.563,0,13.563,0l46.453,6.781c7.46,1.017,15.258-3.391,17.971-10.85
	C462.495,458.087,460.8,451.306,456.392,446.898z"/>
<g>
	<path style="fill:#F0BA7A;" d="M437.404,198.019H71.883c-9.833,0-17.632-7.799-17.632-17.632l0,0
		c0-9.833,7.799-17.632,17.632-17.632h365.181c9.833,0,17.632,7.799,17.632,17.632l0,0
		C454.697,190.22,446.898,198.019,437.404,198.019z"/>
	<path style="fill:#F0BA7A;" d="M99.348,223.11v189.542c0,0-44.758,41.706-31.195,46.453c13.563,4.747,45.775-13.563,66.119-8.816
		s128.17,29.838,207.852,9.494c0,0-186.49,14.58-210.564-41.706C107.147,362.13,99.348,223.11,99.348,223.11z"/>
</g>
<path style="fill:#FCFCFD;" d="M415.364,163.094L273.632,21.362c-10.511-10.511-27.465-10.511-37.976,0L93.923,163.094H415.364z"/>
<g>
</g>
<g>
</g>
<g>
</g>
<g>
</g>
<g>
</g>
<g>
</g>
<g>
</g>
<g>
</g>
<g>
</g>
<g>
</g>
<g>
</g>
<g>
</g>
<g>
</g>
<g>
</g>
<g>
</g>
</svg>
